<svg width="162" height="229" viewBox="0 0 162 229" fill="none" xmlns="http://www.w3.org/2000/svg">
<path d="M19.3113 138.322L16.1729 145.473L13.4955 152.43L12.7894 154.418L12.059 156.502L11.2554 158.878L10.2816 161.52L9.35615 164.381L8.28483 167.411L6.23871 173.909L4.26461 180.939L2.58141 188.043L1.77617 191.656L1.16482 195.318L0.699269 198.809L0.33068 202.326L0.277432 205.818L0.345492 209.238L0.656373 212.513L1.28251 215.763L2.20022 218.675L2.90121 220.398L3.77235 221.854L4.6679 223.214L5.78174 224.525L6.89565 225.836L8.01008 226.735C10.6751 228.849 14.5804 228.49 16.6697 225.922C18.8804 223.282 18.5219 219.376 15.8812 217.166L15.2756 216.704L14.9364 216.413L14.6216 216.024L14.3313 215.539L14.0653 214.956L13.7749 214.471L13.1953 212.675L12.8583 210.734L12.5946 208.503L12.6223 205.932L12.6988 203.167L12.9211 200.233L13.3861 197.153L13.8755 193.977L14.5833 190.752L16.2659 184.06L18.118 177.514L20.091 171.308L21.041 168.35L22.0391 165.611L22.8915 163.041L23.7921 160.69L24.5469 158.508L25.1798 156.811L27.687 150.121L30.5578 143.625L33.8652 137.032L37.4637 130.513L41.45 124.091L45.8486 117.67L50.4412 111.297L55.3247 104.998L60.4748 98.869L65.9159 92.8129L71.5265 86.9027L77.3793 81.2595L83.426 75.6652L89.521 70.2892L95.8825 65.0834L102.292 60.0958L108.726 55.4237L115.305 50.9942L121.932 46.7832L128.607 42.7904L135.281 39.2098L141.883 35.9204L145.377 34.3244L144.842 36.0457L143.697 39.3669L142.553 42.6881L141.262 46.1788L138.658 53.2573L136.029 60.0204L133.595 66.4201L132.451 69.329L131.477 71.9713L130.552 74.4197L129.701 76.5771L129.043 78.3709L128.581 79.8012C127.412 83.2194 129.25 86.9813 132.668 88.1501C136.086 89.319 139.751 87.4564 140.92 84.0382L141.358 82.7049L141.967 81.1049L142.697 79.0201L143.598 76.6688L144.596 73.9294L145.74 71.0206L148.174 64.6209L150.73 57.7364L153.359 50.561L154.674 46.9732L155.867 43.4581L157.036 40.0398L158.083 36.6943L158.985 33.5183L159.838 30.5363L160.521 27.8208L161.082 25.178L161.449 22.8986L161.572 21.589L161.646 20.4735L161.648 19.2366L161.48 17.8539L160.949 16.2766L159.4 13.8249L155.96 10.6916L151.282 8.38114L146.773 7.04098L144.445 6.45573L142.263 6.11328L140.177 5.79509L138.311 5.42873L136.613 5.20821L135.255 4.8668L130.964 3.8908L126.115 2.67152L121.047 1.50043L118.307 0.914595L115.616 0.547172L112.803 0.252328L110.062 0.07882L107.249 0.196185L104.799 0.508174C101.378 0.988591 99.0457 4.1141 99.5261 7.53451C100.031 10.8579 103.035 13.2632 106.456 12.7827L108.275 12.5185L109.949 12.4237L111.889 12.4991L113.974 12.8173L116.156 13.1597L118.436 13.5267L123.212 14.6246L127.94 15.9165L132.522 16.9657L134.365 17.429L136.257 17.6983L138.245 17.9921L140.112 18.3584L141.882 18.7003L143.555 19.0179L146.125 19.8703L143.383 20.9337L136.296 24.1013L129.209 27.6812L122.171 31.4794L115.131 35.6899L108.237 40.1432L101.294 44.7905L94.4724 49.7775L87.7956 55.0071L81.1669 60.4552L74.8049 66.0733L68.491 71.9098L62.4192 78.0135L56.5415 84.1659L50.906 90.5854L45.4643 97.0537L40.2893 103.692L35.4052 110.404L30.8846 117.31L26.6794 124.192L22.7407 131.245L19.3113 138.322Z" fill="white"/>
</svg>
