<svg width="20" height="22" viewBox="0 0 20 22" fill="none" xmlns="http://www.w3.org/2000/svg">
<path d="M0 1.55225V20.4465C0.000126581 20.4875 0.0123528 20.5275 0.0351456 20.5616C0.0579385 20.5957 0.0902832 20.6222 0.128124 20.638C0.165965 20.6538 0.207617 20.658 0.247858 20.6502C0.288098 20.6424 0.325136 20.6229 0.354327 20.5941L10.1923 10.9998L0.354327 1.40465C0.325136 1.37587 0.288098 1.35635 0.247858 1.34853C0.207617 1.34072 0.165965 1.34496 0.128124 1.36072C0.0902832 1.37648 0.0579385 1.40307 0.0351456 1.43714C0.0123528 1.47121 0.000126581 1.51125 0 1.55225ZM14.3173 7.05753L1.98173 0.261381L1.97404 0.257054C1.76154 0.14167 1.55962 0.42917 1.73365 0.596478L11.4034 9.84263L14.3173 7.05753ZM1.73462 21.4032C1.55962 21.5705 1.76154 21.858 1.975 21.7426L1.98269 21.7383L14.3173 14.9421L11.4034 12.1561L1.73462 21.4032ZM19.2971 9.79792L15.8524 7.9008L12.6135 10.9998L15.8524 14.0974L19.2971 12.2018C20.2341 11.684 20.2341 10.3157 19.2971 9.79792Z" fill="black"/>
</svg>
