<svg width="20" height="26" viewBox="0 0 20 26" fill="none" xmlns="http://www.w3.org/2000/svg">
<path d="M14.8953 0.703725C14.843 0.645263 12.9583 0.726802 11.3183 2.5068C9.67835 4.28526 9.93066 6.32526 9.96758 6.37757C10.0045 6.42988 12.306 6.51142 13.7753 4.44219C15.2445 2.37296 14.9476 0.763725 14.8953 0.703725V0.703725ZM19.9937 18.7545C19.9199 18.6068 16.4168 16.856 16.743 13.4899C17.0691 10.1222 19.3199 9.19911 19.3553 9.09911C19.3907 8.99911 18.4368 7.88373 17.426 7.31911C16.6839 6.92104 15.8625 6.69297 15.0214 6.65142C14.8553 6.6468 14.2783 6.50526 13.0922 6.82988C12.3107 7.04372 10.5491 7.73603 10.0645 7.76373C9.57835 7.79142 8.13219 6.96065 6.57681 6.74065C5.58142 6.54834 4.52604 6.94219 3.77066 7.24526C3.01681 7.5468 1.58296 8.40526 0.579886 10.6868C-0.423191 12.9668 0.101424 16.5791 0.476809 17.7022C0.852194 18.8237 1.43835 20.6622 2.43527 22.0037C3.32142 23.5176 4.49681 24.5683 4.98758 24.9253C5.47835 25.2822 6.86296 25.5191 7.82296 25.0283C8.59527 24.5545 9.98912 24.2822 10.5399 24.3022C11.0891 24.3222 12.1722 24.5391 13.2814 25.1314C14.1599 25.4345 14.9907 25.3083 15.823 24.9699C16.6553 24.6299 17.8599 23.3406 19.266 20.7268C19.7999 19.5114 20.043 18.8545 19.9937 18.7545V18.7545Z" fill="black"/>
</svg>
