<svg width="20" height="16" viewBox="0 0 20 16" fill="none" xmlns="http://www.w3.org/2000/svg">
<path d="M0.998047 1V0.5C0.865439 0.5 0.738262 0.552679 0.644494 0.646447C0.550725 0.740215 0.498047 0.867392 0.498047 1H0.998047ZM18.998 1H19.498C19.498 0.867392 19.4454 0.740215 19.3516 0.646447C19.2578 0.552679 19.1307 0.5 18.998 0.5V1ZM0.998047 1.5H18.998V0.5H0.998047V1.5ZM18.498 1V13H19.498V1H18.498ZM16.998 14.5H2.99805V15.5H16.998V14.5ZM1.49805 13V1H0.498047V13H1.49805ZM2.99805 14.5C2.60022 14.5 2.21869 14.342 1.93739 14.0607C1.65608 13.7794 1.49805 13.3978 1.49805 13H0.498047C0.498047 13.663 0.761439 14.2989 1.23028 14.7678C1.69912 15.2366 2.33501 15.5 2.99805 15.5V14.5ZM18.498 13C18.498 13.3978 18.34 13.7794 18.0587 14.0607C17.7774 14.342 17.3959 14.5 16.998 14.5V15.5C17.6611 15.5 18.297 15.2366 18.7658 14.7678C19.2347 14.2989 19.498 13.663 19.498 13H18.498Z" fill="black"/>
<path d="M1 1L10 10L19 1" stroke="black" stroke-linecap="round" stroke-linejoin="round"/>
</svg>
