<svg width="20" height="20" viewBox="0 0 20 20" fill="none" xmlns="http://www.w3.org/2000/svg">
<path d="M17.0203 2.97522C15.6313 1.58682 13.8618 0.641483 11.9355 0.258751C10.0092 -0.123981 8.01267 0.0730819 6.19838 0.825021C4.38409 1.57696 2.83352 2.85 1.74274 4.48317C0.651951 6.11634 0.0699448 8.03629 0.0703127 10.0002C0.0703123 12.6343 1.11635 15.1605 2.97844 17.0236C4.84053 18.8866 7.36625 19.9339 10.0003 19.9352C11.3038 19.9358 12.5948 19.681 13.8003 19.1852C15.002 18.678 16.0951 17.9447 17.0203 17.0252C17.943 16.1027 18.6748 15.0076 19.1742 13.8022C19.6735 12.5968 19.9305 11.3049 19.9305 10.0002C19.9305 8.69553 19.6735 7.40361 19.1742 6.19825C18.6748 4.99289 17.943 3.8977 17.0203 2.97522ZM16.3203 16.3152C14.8904 17.7513 13.0141 18.6577 11.0003 18.8852V12.3252H12.8803C13.1455 12.3252 13.3999 12.2199 13.5874 12.0323C13.775 11.8448 13.8803 11.5904 13.8803 11.3252C13.8803 11.06 13.775 10.8057 13.5874 10.6181C13.3999 10.4306 13.1455 10.3252 12.8803 10.3252H11.0003V7.58522C11.0003 7.32001 11.1057 7.06565 11.2932 6.87812C11.4807 6.69058 11.7351 6.58522 12.0003 6.58522H13.2003C13.4655 6.58522 13.7199 6.47987 13.9074 6.29233C14.095 6.10479 14.2003 5.85044 14.2003 5.58522C14.2003 5.32001 14.095 5.06565 13.9074 4.87812C13.7199 4.69058 13.4655 4.58522 13.2003 4.58522H11.5003C10.8373 4.58522 10.2014 4.84862 9.73255 5.31746C9.2637 5.7863 9.00031 6.42218 9.00031 7.08522V10.3252H7.13031C6.8651 10.3252 6.61074 10.4306 6.42321 10.6181C6.23567 10.8057 6.13031 11.06 6.13031 11.3252C6.13031 11.5904 6.23567 11.8448 6.42321 12.0323C6.61074 12.2199 6.8651 12.3252 7.13031 12.3252H9.00031V18.8852C7.1432 18.6734 5.39959 17.8834 4.01576 16.6269C2.63193 15.3704 1.67783 13.7109 1.28821 11.8828C0.8986 10.0547 1.09317 8.15041 1.84444 6.43888C2.59572 4.72735 3.86572 3.2951 5.47506 2.34444C7.08441 1.39378 8.95175 0.97276 10.8133 1.14084C12.6749 1.30892 14.4366 2.05762 15.8497 3.28117C17.2627 4.50472 18.2556 6.14128 18.6882 7.9597C19.1207 9.77812 18.9711 11.6865 18.2603 13.4152C17.8076 14.4984 17.1487 15.4834 16.3203 16.3152Z" fill="black"/>
</svg>
