<svg width="30" height="29" viewBox="0 0 30 29" fill="none" xmlns="http://www.w3.org/2000/svg">
<path d="M30 3.71704V13.6525C29.9714 14.596 29.5711 15.4899 28.8862 16.1394C28.2013 16.7889 27.2874 17.1414 26.3438 17.12H26.0259C25.7624 17.12 25.5097 17.0153 25.3233 16.829C25.137 16.6427 25.0323 16.3899 25.0323 16.1264C25.0323 15.8629 25.137 15.6102 25.3233 15.4239C25.5097 15.2376 25.7624 15.1329 26.0259 15.1329H26.3438C26.7639 15.1546 27.1755 15.0088 27.4883 14.7276C27.8012 14.4464 27.9898 14.0527 28.0129 13.6326V3.69717C27.9848 3.28067 27.794 2.89196 27.4817 2.61497C27.1694 2.33799 26.7607 2.19496 26.3438 2.21678H11.7984C11.4266 2.20542 11.0615 2.3171 10.7597 2.53447C10.4579 2.75185 10.2363 3.06276 10.1292 3.41897C10.1047 3.55191 10.0533 3.67843 9.97812 3.7908C9.90298 3.90318 9.8057 3.99904 9.69223 4.07251C9.57877 4.14599 9.4515 4.19554 9.31822 4.21812C9.18494 4.24071 9.04845 4.23586 8.91711 4.20387C8.78613 4.17805 8.66169 4.12609 8.55124 4.0511C8.44078 3.9761 8.34658 3.87962 8.27424 3.76741C8.20191 3.6552 8.15293 3.52956 8.13023 3.398C8.10754 3.26643 8.11159 3.13164 8.14215 3.00168C8.34693 2.1935 8.82035 1.47894 9.48471 0.975244C10.1491 0.471551 10.9649 0.208652 11.7984 0.229687H26.3438C27.2908 0.208347 28.2076 0.563532 28.893 1.21731C29.5785 1.8711 29.9766 2.77008 30 3.71704ZM20.3826 5.19742H5.83714C4.89014 5.17608 3.97335 5.53127 3.28791 6.18505C2.60246 6.83883 2.20435 7.73782 2.18091 8.68477V18.6202C2.19856 19.4489 2.50665 20.245 3.05141 20.8697C3.59616 21.4943 4.34299 21.9079 5.16153 22.038V27.0555C5.16251 27.2516 5.22153 27.4431 5.33115 27.6057C5.44077 27.7684 5.59608 27.895 5.77752 27.9695C5.89544 28.0251 6.02474 28.0524 6.15507 28.049C6.28582 28.0498 6.41544 28.0247 6.53649 27.9753C6.65754 27.9258 6.76764 27.853 6.86048 27.7609L12.5237 22.0877H20.3826C21.3296 22.1091 22.2463 21.7539 22.9318 21.1001C23.6172 20.4463 24.0153 19.5473 24.0388 18.6004V8.6649C24.0102 7.72144 23.6098 6.82752 22.9249 6.178C22.2401 5.52848 21.3262 5.17601 20.3826 5.19742ZM22.0517 18.6004C22.0286 19.0204 21.84 19.4142 21.5271 19.6954C21.2142 19.9766 20.8027 20.1223 20.3826 20.1006H12.1163C11.9865 20.1022 11.8582 20.1292 11.7388 20.1801C11.6168 20.2274 11.5054 20.2983 11.4109 20.3888L7.14861 24.661V21.0942C7.14861 20.8307 7.04393 20.578 6.85761 20.3916C6.67128 20.2053 6.41857 20.1006 6.15507 20.1006H5.83714C5.41703 20.1223 5.00546 19.9766 4.6926 19.6954C4.37974 19.4142 4.19109 19.0204 4.16799 18.6004V8.6649C4.19612 8.24841 4.38694 7.85969 4.69924 7.58271C5.01155 7.30572 5.42027 7.16269 5.83714 7.18452H20.3826C20.8027 7.16285 21.2142 7.30858 21.5271 7.58978C21.84 7.87099 22.0286 8.26474 22.0517 8.68477V18.6004Z" fill="white"/>
<g opacity="0.5" clip-path="url(#clip0_1828_619)">
<path d="M1.82633 2.06909L1.47504 2.3757L1.58027 2.83219C1.58584 2.85605 1.58425 2.88103 1.5757 2.90399C1.56716 2.92696 1.55203 2.94689 1.53221 2.96131C1.5124 2.97572 1.48877 2.98397 1.46429 2.98503C1.43981 2.98609 1.41557 2.97991 1.39458 2.96726L0.99648 2.72578L0.599237 2.96726C0.578251 2.97991 0.554002 2.98609 0.529522 2.98503C0.505043 2.98397 0.481419 2.97572 0.461603 2.96131C0.441788 2.94689 0.426661 2.92696 0.418113 2.90399C0.409566 2.88103 0.407977 2.85605 0.413545 2.83219L0.51862 2.37617L0.167255 2.06909C0.14867 2.05306 0.135232 2.0319 0.128625 2.00826C0.122018 1.98462 0.122536 1.95956 0.130114 1.93622C0.137692 1.91287 0.151993 1.89229 0.171224 1.87704C0.190454 1.86179 0.213758 1.85256 0.238213 1.8505L0.701352 1.81039L0.882136 1.37914C0.891577 1.35651 0.907501 1.33718 0.927904 1.32358C0.948306 1.30999 0.972275 1.30273 0.996791 1.30273C1.02131 1.30273 1.04528 1.30999 1.06568 1.32358C1.08608 1.33718 1.10201 1.35651 1.11145 1.37914L1.29278 1.81039L1.75576 1.8505C1.78021 1.85256 1.80352 1.86179 1.82275 1.87704C1.84198 1.89229 1.85628 1.91287 1.86386 1.93622C1.87144 1.95956 1.87195 1.98462 1.86535 2.00826C1.85874 2.0319 1.8453 2.05306 1.82672 2.06909H1.82633Z" fill="#B3B3B3"/>
</g>
<g opacity="0.5" clip-path="url(#clip1_1828_619)">
<path d="M4.31925 2.06909L3.96796 2.3757L4.07319 2.83219C4.07876 2.85605 4.07717 2.88103 4.06862 2.90399C4.06007 2.92696 4.04495 2.94689 4.02513 2.96131C4.00532 2.97572 3.98169 2.98397 3.95721 2.98503C3.93273 2.98609 3.90849 2.97991 3.8875 2.96726L3.4894 2.72578L3.09216 2.96726C3.07117 2.97991 3.04692 2.98609 3.02244 2.98503C2.99796 2.98397 2.97434 2.97572 2.95452 2.96131C2.93471 2.94689 2.91958 2.92696 2.91103 2.90399C2.90249 2.88103 2.9009 2.85605 2.90647 2.83219L3.01154 2.37617L2.66017 2.06909C2.64159 2.05306 2.62815 2.0319 2.62155 2.00826C2.61494 1.98462 2.61546 1.95956 2.62303 1.93622C2.63061 1.91287 2.64491 1.89229 2.66414 1.87704C2.68337 1.86179 2.70668 1.85256 2.73113 1.8505L3.19427 1.81039L3.37506 1.37914C3.3845 1.35651 3.40042 1.33718 3.42082 1.32358C3.44123 1.30999 3.46519 1.30273 3.48971 1.30273C3.51423 1.30273 3.5382 1.30999 3.5586 1.32358C3.579 1.33718 3.59493 1.35651 3.60437 1.37914L3.7857 1.81039L4.24868 1.8505C4.27313 1.85256 4.29644 1.86179 4.31567 1.87704C4.3349 1.89229 4.3492 1.91287 4.35678 1.93622C4.36436 1.95956 4.36487 1.98462 4.35827 2.00826C4.35166 2.0319 4.33822 2.05306 4.31964 2.06909H4.31925Z" fill="#B3B3B3"/>
</g>
<g opacity="0.5" clip-path="url(#clip2_1828_619)">
<path d="M6.81144 2.06909L6.46015 2.3757L6.56538 2.83219C6.57095 2.85605 6.56936 2.88103 6.56081 2.90399C6.55226 2.92696 6.53714 2.94689 6.51732 2.96131C6.4975 2.97572 6.47388 2.98397 6.4494 2.98503C6.42492 2.98609 6.40067 2.97991 6.37969 2.96726L5.98159 2.72578L5.58434 2.96726C5.56336 2.97991 5.53911 2.98609 5.51463 2.98503C5.49015 2.98397 5.46653 2.97572 5.44671 2.96131C5.4269 2.94689 5.41177 2.92696 5.40322 2.90399C5.39467 2.88103 5.39308 2.85605 5.39865 2.83219L5.50373 2.37617L5.15236 2.06909C5.13378 2.05306 5.12034 2.0319 5.11373 2.00826C5.10713 1.98462 5.10764 1.95956 5.11522 1.93622C5.1228 1.91287 5.1371 1.89229 5.15633 1.87704C5.17556 1.86179 5.19887 1.85256 5.22332 1.8505L5.68646 1.81039L5.86724 1.37914C5.87668 1.35651 5.89261 1.33718 5.91301 1.32358C5.93341 1.30999 5.95738 1.30273 5.9819 1.30273C6.00642 1.30273 6.03038 1.30999 6.05079 1.32358C6.07119 1.33718 6.08711 1.35651 6.09655 1.37914L6.27788 1.81039L6.74087 1.8505C6.76532 1.85256 6.78863 1.86179 6.80786 1.87704C6.82709 1.89229 6.84139 1.91287 6.84897 1.93622C6.85654 1.95956 6.85706 1.98462 6.85045 2.00826C6.84385 2.0319 6.83041 2.05306 6.81182 2.06909H6.81144Z" fill="#B3B3B3"/>
</g>
<defs>
<clipPath id="clip0_1828_619">
<rect width="1.994" height="1.99421" fill="white" transform="translate(0 1.17773)"/>
</clipPath>
<clipPath id="clip1_1828_619">
<rect width="1.994" height="1.99421" fill="white" transform="translate(2.49243 1.17773)"/>
</clipPath>
<clipPath id="clip2_1828_619">
<rect width="1.994" height="1.99421" fill="white" transform="translate(4.98511 1.17773)"/>
</clipPath>
</defs>
</svg>
