<svg width="20" height="20" viewBox="0 0 20 20" fill="none" xmlns="http://www.w3.org/2000/svg">
<g clip-path="url(#clip0_2119_1402)">
<path d="M16.0196 17.2974H0.416667C0.30616 17.2974 0.200179 17.2535 0.122039 17.1753C0.0438987 17.0972 0 16.9912 0 16.8807V7.94987C0 7.83936 0.0438987 7.73338 0.122039 7.65524C0.200179 7.5771 0.30616 7.5332 0.416667 7.5332H16.0196C16.1301 7.5332 16.2361 7.5771 16.3142 7.65524C16.3924 7.73338 16.4363 7.83936 16.4363 7.94987V16.8807C16.4363 16.9912 16.3924 17.0972 16.3142 17.1753C16.2361 17.2535 16.1301 17.2974 16.0196 17.2974ZM0.833333 16.464H15.6029V8.36654H0.833333V16.464Z" fill="#1C1C1B"/>
<path d="M13.3332 16.036H3.1053C2.9948 16.036 2.88882 15.9921 2.81068 15.914C2.73253 15.8359 2.68864 15.7299 2.68864 15.6194C2.68831 15.3976 2.60004 15.185 2.44319 15.0283C2.28635 14.8715 2.07373 14.7833 1.85197 14.7831C1.74146 14.7831 1.63548 14.7392 1.55734 14.6611C1.4792 14.5829 1.4353 14.477 1.4353 14.3665V10.4669C1.4353 10.3564 1.4792 10.2504 1.55734 10.1722C1.63548 10.0941 1.74146 10.0502 1.85197 10.0502C2.07377 10.0499 2.28638 9.96162 2.44322 9.80479C2.60005 9.64796 2.68831 9.43534 2.68864 9.21354C2.68864 9.10303 2.73253 8.99705 2.81068 8.91891C2.88882 8.84077 2.9948 8.79688 3.1053 8.79688H13.3332C13.4437 8.79688 13.5497 8.84077 13.6278 8.91891C13.706 8.99705 13.7499 9.10303 13.7499 9.21354C13.7501 9.4348 13.8379 9.64697 13.994 9.80374C14.1501 9.9605 14.362 10.0491 14.5832 10.0502C14.6937 10.0502 14.7997 10.0941 14.8779 10.1722C14.956 10.2504 14.9999 10.3564 14.9999 10.4669V14.3665C14.9999 14.477 14.956 14.5829 14.8779 14.6611C14.7997 14.7392 14.6937 14.7831 14.5832 14.7831C14.3615 14.7833 14.1489 14.8715 13.9921 15.0283C13.8354 15.1851 13.7472 15.3977 13.747 15.6194C13.747 15.7294 13.7035 15.8349 13.626 15.913C13.5485 15.991 13.4432 16.0353 13.3332 16.036ZM3.47114 15.2027H12.9711C13.0456 14.9142 13.1957 14.6508 13.4058 14.4395C13.6159 14.2282 13.8785 14.0767 14.1666 14.0006V10.8306C13.8777 10.7555 13.6142 10.6047 13.4031 10.3936C13.1921 10.1826 13.0412 9.91904 12.9661 9.63021H3.46905C3.39402 9.91908 3.24319 10.1827 3.03214 10.3937C2.8211 10.6048 2.55751 10.7556 2.26864 10.8306V14.0006C2.55768 14.0759 2.82136 14.227 3.03241 14.4383C3.24345 14.6497 3.3942 14.9136 3.46905 15.2027H3.47114Z" fill="#1C1C1B"/>
<path d="M8.21823 14.7125C7.76394 14.7126 7.31982 14.5779 6.94207 14.3256C6.56431 14.0732 6.26988 13.7145 6.09601 13.2948C5.92214 12.8751 5.87665 12.4133 5.96528 11.9677C6.05392 11.5221 6.27271 11.1129 6.59397 10.7917C6.91523 10.4705 7.32453 10.2518 7.77011 10.1632C8.21569 10.0746 8.67752 10.1202 9.09719 10.2942C9.51686 10.4681 9.87552 10.7626 10.1278 11.1404C10.3801 11.5182 10.5146 11.9624 10.5145 12.4166C10.5135 13.0253 10.2712 13.6087 9.8408 14.0391C9.41037 14.4694 8.82689 14.7116 8.21823 14.7125ZM8.21823 10.9529C7.92881 10.9528 7.64586 11.0386 7.40517 11.1993C7.16448 11.36 6.97686 11.5885 6.86603 11.8558C6.75519 12.1232 6.72613 12.4174 6.78251 12.7013C6.8389 12.9852 6.97819 13.246 7.18278 13.4507C7.38738 13.6554 7.64808 13.7948 7.93192 13.8514C8.21576 13.9079 8.51 13.879 8.77742 13.7683C9.04484 13.6576 9.27343 13.4702 9.4343 13.2296C9.59516 12.989 9.68106 12.7061 9.68114 12.4166C9.68092 12.0286 9.52675 11.6566 9.25247 11.3822C8.97819 11.1077 8.60623 10.9533 8.21823 10.9529Z" fill="#1C1C1B"/>
<path d="M17.0079 14.911C16.901 14.911 16.7982 14.8699 16.7207 14.7962C16.6432 14.7226 16.597 14.6219 16.5917 14.5152C16.5863 14.4084 16.6222 14.3036 16.6919 14.2226C16.7616 14.1416 16.8598 14.0904 16.9662 14.0797L17.447 14.0293L16.6012 5.97639L3.18746 7.38472C3.0775 7.39627 2.96746 7.36366 2.88155 7.29408C2.79563 7.2245 2.74088 7.12363 2.72933 7.01368C2.71778 6.90372 2.75039 6.79369 2.81997 6.70777C2.88956 6.62185 2.99042 6.5671 3.10037 6.55555L16.927 5.10389C16.9815 5.09811 17.0365 5.10312 17.0891 5.11864C17.1416 5.13416 17.1905 5.15987 17.2331 5.19431C17.2756 5.22875 17.311 5.27124 17.3371 5.31936C17.3633 5.36747 17.3797 5.42026 17.3854 5.47472L18.3183 14.3568C18.3241 14.4113 18.3191 14.4663 18.3035 14.5188C18.288 14.5713 18.2623 14.6203 18.2279 14.6628C18.1934 14.7054 18.1509 14.7408 18.1028 14.7669C18.0547 14.793 18.0019 14.8094 17.9475 14.8151L17.052 14.9093C17.037 14.9101 17.0225 14.911 17.0079 14.911Z" fill="#1C1C1B"/>
<path d="M18.9028 12.4369C18.7992 12.4368 18.6993 12.3981 18.6227 12.3284C18.5461 12.2586 18.4982 12.1628 18.4884 12.0596C18.4786 11.9565 18.5076 11.8533 18.5698 11.7704C18.6319 11.6875 18.7227 11.6307 18.8245 11.6111L19.0958 11.559L17.5699 3.60652L4.51117 6.11152C4.45736 6.12184 4.40204 6.12145 4.34837 6.11039C4.29471 6.09932 4.24375 6.0778 4.1984 6.04704C4.10682 5.98491 4.04367 5.88896 4.02284 5.78027C4.01253 5.72646 4.01291 5.67114 4.02398 5.61748C4.03504 5.56381 4.05657 5.51285 4.08733 5.4675C4.11809 5.42216 4.15748 5.38331 4.20325 5.35319C4.24902 5.32307 4.30028 5.30225 4.35409 5.29194L17.8224 2.70861C17.9309 2.68784 18.0431 2.71098 18.1346 2.77293C18.226 2.83489 18.289 2.93059 18.3099 3.03902L19.9924 11.8103C20.0132 11.9188 19.99 12.0311 19.9279 12.1225C19.8659 12.2139 19.7701 12.277 19.6616 12.2978L18.9816 12.4282C18.9557 12.4335 18.9293 12.4365 18.9028 12.4369Z" fill="#1C1C1B"/>
</g>
<defs>
<clipPath id="clip0_2119_1402">
<rect width="20" height="20" fill="white"/>
</clipPath>
</defs>
</svg>
