<svg id="SvgjsSvg1001" width="550" height="550" xmlns="http://www.w3.org/2000/svg" version="1.1"
	xmlns:xlink="http://www.w3.org/1999/xlink" xmlns:svgjs="http://svgjs.com/svgjs">
	<defs id="SvgjsDefs1002"></defs>
	<g id="SvgjsG1008">
		<svg xmlns="http://www.w3.org/2000/svg" enable-background="new 0 0 2100 2100"
			viewBox="0 0 2100 2100" width="550" height="550">
			<path fill="#f4d576"
				d="M700.19,1088.01c-3.33-31.1-14.99-187.34-6.98-197.69l-158.6-65.7c-32.11,16.94-60.81,41.95-77.29,74.3
			c-17.87,35.09-27.62,66.61-26.34,105.97c1.24,37.99,12.61,74.42,54.96,119.62c16.7,68.21,77.51,273.62,99.67,355.68l149.95-82.7
			C727.5,1309.11,714.95,1172.15,700.19,1088.01z"
				class="colorf4d576 svgShape"></path>
			<path fill="#fca79f"
				d="M785.6,1814.59c-15.33-65.7-35.48-445.4-73.12-492.67c-17.36-19-61.2-40.17-137.46-20.92
				c0,0,96.78,490.01,106.3,545.79c0.54,3.14,1.2,6.25,1.98,9.34l6.24,41.97l164.27-64.26L785.6,1814.59z"
				class="colorfca79f svgShape"></path>
			<path fill="#f4d576"
				d="M585.87,1481.97c33.97,134.37,70.88,283.2,72.75,297.02l154.56-37.88
				c-15.83-61.81-52.58-354.89-93.16-417.21c-17.36-19-69.23-47.89-145-22.9L585.87,1481.97z"
				class="colorf4d576 svgShape"></path>
			<path fill="#231f20"
				d="M685.32,1884.7c-2.6,35.72-1.94,73.26,15.93,78.55c8.14,2.41,16.94,0.94,25.35-0.74
			c42.51-8.51,81.7-26.96,123.02-37.61c40.61-10.47,81.92-18.51,122.44-30.19c8.94-2.58,18.09-5.33,25.48-11.03
			c7.4-5.72,12.76-15.09,11.03-24.16c-3.04-15.97-23.32-20.28-39.55-21.25c-39.95-2.41-79.9-4.8-119.86-7.2L685.32,1884.7z"
				class="color231f20 svgShape"></path>
			<path fill="#fca79f"
				d="M735.83,523.06c38.97,5.99,74.43,31.02,98.32,119.09l144,181.28l-31.3,47.06
		c-23.23,24.36-62.37,23.53-84.53-1.81L710.57,695.26L735.83,523.06z"
				class="colorfca79f svgShape"></path>
			<path fill="#231f20"
				d="M868.62,680.96l-108.77,77.36l-49.28-63.06l25.26-172.2c38.97,5.98,77.5,28.46,101.38,116.54L868.62,680.96z"
				class="color231f20 svgShape"></path>
			<path fill="#fca79f"
				d="M468.42,1587.13c53.45-19.24,411.56-141.64,437.99-198.6c13.13-22.14,20.61-70.25-20.01-137.59
		c0,0-440.61,235.26-491.19,260.61c-2.85,1.43-5.63,2.97-8.36,4.62l-56.33,34.1l137.9,83.38V1587.13z"
				class="colorfca79f svgShape"></path>
			<path fill="#f4d576"
				d="M716.42,1314.01c-118.66,71.62-250.29,150.27-262.97,156.07l81.24,136.83
		c54.52-33.14,324.2-153.63,372.01-210.59c13.13-22.14,25.66-80.17-20.31-145.38L716.42,1314.01z"
				class="colorf4d576 svgShape"></path>
			<path fill="#231f20"
				d="M289.54,1611.01c3.79,7.45,10.78,12.58,17.66,17.28c34.78,23.74,74.39,37.98,109.87,59.33
		c34.89,20.99,68.52,44.22,104.21,64.27c7.87,4.42,16.01,8.86,25.06,9.95c9.07,1.08,19.35-1.92,24.62-9.66
		c9.29-13.65-1.35-31.01-11.63-43.12c-25.3-29.81-65.61-65.93-90.92-95.75l-133.84-70.14
		C307.45,1567.11,281.23,1594.65,289.54,1611.01z"
				class="color231f20 svgShape"></path>
			<path fill="#f4d576"
				d="M746.73,1030.47c-16.06-26.84-57.38-76.47-59.64-83.99c7.15-22.47,2.11-45.56,6.13-56.17l-207.23-29.55
		c-22.05,28.85-37.62,63.58-39.02,99.86c-1.51,39.35,10.2,65.36,27.87,100.56c17.05,33.97,77.12,87.65,118.9,119.28
		c43.76,54.93,92.76,102.53,147.28,167.74l145.38-97.28C842.02,1174.07,795.41,1100.67,746.73,1030.47z"
				class="colorf4d576 svgShape"></path>
			<path fill="none" stroke="#191716" stroke-linecap="round" stroke-linejoin="round"
				stroke-miterlimit="10" stroke-width="3"
				d="M474.83 1061.19c17.05 33.97 77.12 87.65 118.9 119.28 36.21 45.45 76.01 85.89 119.55 135.43-52.04 31.4-106.34 64.02-151.83 91.14M606.78 1569.2c45.75-22.89 104.24-51.7 157.87-80.38"
				class="colorStroke191716 svgStroke"></path>
			<line x1="684.02" x2="655.43" y1="945.47" y2="912.79" fill="none" stroke="#191716"
				stroke-linecap="round" stroke-linejoin="round" stroke-miterlimit="10" stroke-width="3"
				class="colorStroke191716 svgStroke"></line>
			<path fill="#fca79f"
				d="M1024.9,477.92c3.04-7.03,6.87-13.89,10.1-20.29c11.13-22.05,25.76-44.2,41.54-63.2
		c4.66-5.61,11.56-11.34,18.45-8.92c10.17,3.58,9.46,12.69,4.64,20.07c-10.81,16.56-18.51,35.14-22.57,54.49
		c8.35-16.51,18.7-32,30.76-46.03c3.32-3.87,6.92-7.73,11.59-9.8s10.69-1.9,14.31,1.7c3.52,3.49,3.84,9.23,2.23,13.92
		c-1.61,4.69-4.79,8.63-7.69,12.66c-9.75,13.57-16.68,29.15-20.24,45.47c8.16-14.08,17.93-27.24,29.05-39.13
		c3.52-3.76,7.35-7.51,12.23-9.16c4.88-1.65,11.06-0.55,13.81,3.8c2.11,3.34,1.74,7.67,0.71,11.49
		c-4.4,16.28-24.21,28.6-26.69,44.48c-2.78,17.87,25.58-8.33,32.25-12.78c2.74-1.83,5.75-3.71,9.05-3.55
		c6.48,0.31,9.98,8.6,8.06,14.79c-1.92,6.19-7.23,10.61-12.1,14.88c-18.15,15.94-33.63,34.91-45.59,55.89
		c-9.83,17.24-17.4,35.95-29.82,51.44c-12.42,15.49-31.38,27.69-51.1,25.28c-14.95-1.83-28.21-12.17-35.07-25.57
		c-11.72-22.89-3.27-42.6,2.55-64.95c4.22-16.21,3.01-32.03,4.35-48.34C1020.2,490.33,1022.25,484.06,1024.9,477.92z"
				class="colorfca79f svgShape"></path>
			<path fill="#231f20"
				d="M743.77,743.77l-19.92,62.8l-13.79,108.77l-248.17-45.96l37.21-155.26c-6.28-43.44,10.65-134.83,16.41-178.69
		c13.16-13.29,43-17.88,80.45-18.49c30.42-0.51,65.86,1.61,101.47,3.82c12.85,0.79,25.73,1.6,38.4,2.3
		c25.29,15.01,19.43,64.47,24.79,90.49C780.55,678.99,789.43,713.07,743.77,743.77z"
				class="color231f20 svgShape"></path>
			<path fill="none" stroke="#ffc661" stroke-linecap="round" stroke-linejoin="round"
				stroke-miterlimit="10" stroke-width="3"
				d="M760.62,613.55c19.93,65.44,28.81,99.52-16.85,130.22" class="colorStrokeffc661 svgStroke"></path>
			<path fill="#fca79f"
				d="M578.24 1001.03c4.23 5.9 7.93 12.37 11.55 18.13 12.47 19.82 23.32 42.54 31.05 64.64 2.28 6.53 3.57 14.94-1.77 19.35-7.88 6.51-14.93 1.48-18.58-6.04-8.17-16.88-19.51-32.22-33.24-44.97 9.33 14.85 16.86 30.84 22.37 47.5 1.52 4.59 2.9 9.4 2.3 14.2s-3.68 9.61-8.37 10.8c-4.56 1.15-9.38-1.39-12.4-4.99-3.02-3.6-4.67-8.11-6.53-12.43-6.46-15.02-17.01-33.55-32.19-41.14 6.91 13.08 12.84 26.67 17.73 40.62 2 5.69 3.84 11.64 3.35 17.65-.3 3.68-1.89 7.72-5.35 9.02-5.02 1.88-9.87-3.01-12.81-7.5-10.72-16.34-18.34-34.77-30.93-49.72 3.38 16.65 11.55 34.48 11.81 51.48.05 2.93-.46 6.1-2.53 8.17-2.84 2.84-7.47 2.61-11.41 1.81-1.53-.31-3.13-.72-4.25-1.8-.95-.93-1.43-2.22-1.88-3.47-10.4-28.99-19.21-59.39-34.33-86.37-9.2-16.42-20.71-31.71-27.22-49.37-6.52-17.66-7.16-39.04 4.44-53.88 8.79-11.25 23.68-16.97 37.92-16 24.33 1.67 36.21 18.16 51.53 33.82 11.1 11.35 24.55 18.1 37.16 27.16C570.45 991.15 574.55 995.88 578.24 1001.03zM551.99 526.52c28.15.73 45.21 16.4 52.29 45.55 7.24 29.84-5.77 60.95-31.68 77.45L316.36 812.7l-33.92-56.53c-14.53-24.21-7.76-55.54 15.45-71.6l208.14-144C519.53 531.23 535.59 526.1 551.99 526.52z"
				class="colorfca79f svgShape"></path>
			<polygon fill="#fca79f" points="316.36 812.7 434.6 996.59 524.7 955.17 409.81 728.45"
				class="colorfca79f svgShape"></polygon>
			<polygon fill="#fca79f" points="886.23 745.3 1011.34 565.45 1092.53 616 978.15 823.43"
				class="colorfca79f svgShape"></polygon>
			<path fill="#fca79f"
				d="M654.91,432.79c-9.48,32.44-25.38,67.33-44.43,103.4c47.52,32.45,75.57,36.34,88.85,4.6l18.38-52.09
		L654.91,432.79z"
				class="colorfca79f svgShape"></path>
			<path fill="#231f20"
				d="M662.95,354.29c-15.22-7.62-39.65-9.45-48.88-7.07c-16.6,4.27-32.87,12.11-49.97,10.79
		c-33.57-2.59-60.2-39.64-93.32-33.55c-20.8,3.83-35.31,23.9-55.75,29.35c-20.31,5.42-41.06-4.63-61.18-10.71
		s-46.33-6.04-57.22,11.94c15.62,32.65,26.69,70,42.3,102.64c6.63-3.01,13.27-6.03,19.9-9.04c-5.43,8.12-10.85,16.24-16.28,24.36
		c3.11,33.52,40.92,59.08,73.18,49.48c27.8-8.27,47.71-36.97,76.61-39.37c28.86-2.39,58.93,22.56,84.5,8.97
		c7.1-3.77,12.5-10.1,17.01-16.76c17.27-25.44,25.44-58.85,51.31-75.47c9.02-5.79,20.03-9.38,26.24-18.12
		C680.55,368.92,674.32,359.98,662.95,354.29z"
				class="color231f20 svgShape"></path>
			<path fill="#fca79f"
				d="M734.77,498.88c-13.91,3.71-29.53,2.15-42.67-5.38c-29.76-17.04-41.25-50.07-40.3-80.75
		c0.19-6.26,0.92-12.38,2.1-18.16c4.32-21.09,19.89-39.29,40.58-47.44c14.98-5.89,33.16-6.24,49.22-0.94
		c5.24,1.73,10.25,4.05,14.86,6.98c6.31,4,11.85,9.14,16.15,15.41c0.66,0.95,1.28,1.92,1.86,2.9c7.7,12.94,9.11,27.91,7.51,42.8
		c-2.61,24.16-8.76,55.3-27.15,72.51C750.73,492.6,743.05,496.68,734.77,498.88z"
				class="colorfca79f svgShape"></path>
			<path fill="#231f20"
				d="M698.5,397.81c-13.49,9.95-49.78,62.57-51.24,59.49c-25.53-53.62-6.39-80.12,7.66-100.09
		c7.89-11.21,26.6-16.14,39.87-19.57c10.42-2.7,21.4-2.09,32.09-0.83c8.88,1.05,18.01,2.65,25.49,7.56
		c17.02,11.17,0.8,19.87-9.76,25.59c-12.93,7.01-25.88,14.07-37.6,23.01C704.23,393.55,701.84,395.35,698.5,397.81z"
				class="color231f20 svgShape"></path>
			<path fill="#231f20"
				d="M780.14,411.24c-10.65-19.58-17.79-40.02-32.5-58.07c-2.4-2.95-5.49-9.22,0.71-9.85
		c1.43-0.15,9.24,6.22,10.69,7.16c5.93,3.86,11.1,8.88,15.06,15.07c0.61,0.94,1.17,1.9,1.71,2.86c7.59,13.67,14.72,33,7.36,48.19
		C782.13,414.82,781.12,413.03,780.14,411.24z"
				class="color231f20 svgShape"></path>
			<path fill="#ffffff"
				d="M733.96,461.69c1.57-3.73-3.81-7.87-6.36-10.61c-3.04-3.27-7.09-12.44-12.54-9.34
		c-8.32,4.73-0.04,17.39,5.4,20.58c2.73,1.6,8.37,3.86,11.51,1.65C733,463.24,733.63,462.48,733.96,461.69z"
				class="colorfff svgShape"></path>
			<circle cx="651.8" cy="412.76" r="33.81" fill="#fca79f" class="colorfca79f svgShape"></circle>
			<path fill="none" stroke="#191716" stroke-linecap="round" stroke-linejoin="round"
				stroke-miterlimit="10" stroke-width="3"
				d="M631.76 403.65c5.03-11.07 18.08-15.96 29.15-10.93s15.96 18.08 10.93 29.15M732.17 444.48c5.75 2.99 11.92 5.19 18.27 6.49 1.37.28 2.78.52 4.16.32 1.38-.2 2.76-.92 3.43-2.15.87-1.59.34-3.66-.81-5.07s-2.8-2.29-4.42-3.12c-5.16-2.66-10.4-5.17-15.71-7.53"
				class="colorStroke191716 svgStroke"></path>
			<ellipse cx="725.21" cy="418.15" fill="#231f20" rx="5.96" ry="3.57"
				transform="rotate(-71.331 725.174 418.142)" class="color231f20 svgShape"></ellipse>
			<ellipse cx="757.38" cy="433.64" fill="#231f20" rx="5.96" ry="3.57"
				transform="rotate(-71.331 757.342 433.63)" class="color231f20 svgShape"></ellipse>
			<path fill="#231f20"
				d="M772.51 429.5c1.07.32 2.33.47 3.21-.21.43-.32.71-.8.9-1.3.74-1.89.29-4.08-.73-5.83-2.75-4.68-7.5-8.92-12.1-11.75-1.2-.74-2.48-1.42-3.88-1.59s-2.95.29-3.75 1.44c-.98 1.39-.62 3.31.02 4.88 1.48 3.64 4.04 5.73 6.96 8.13C766.1 425.71 768.72 428.37 772.51 429.5zM739.92 408.27c1.11.07 2.37-.07 3.09-.92.34-.41.51-.94.59-1.47.3-2-.63-4.04-2.02-5.52-3.73-3.95-9.31-7.02-14.42-8.75-1.33-.45-2.73-.83-4.13-.68-1.4.15-2.81.94-3.34 2.24-.64 1.57.13 3.36 1.11 4.75 2.26 3.22 5.22 4.68 8.6 6.37C732.81 406.01 735.97 408.02 739.92 408.27z"
				class="color231f20 svgShape"></path>
			<line x1="663.09" x2="655.94" y1="394.49" y2="430.74" fill="none" stroke="#191716"
				stroke-linecap="round" stroke-linejoin="round" stroke-miterlimit="10" stroke-width="3"
				class="colorStroke191716 svgStroke"></line>
			<path fill="#fca79f"
				d="M695.75,571.14c-7.19,5.73-17.16,6.6-26.28,5.47c-12.37-1.53-24.28-6.32-34.47-13.49
		c-16.6-11.68-28.16-28.97-39.04-46.18c30.42-0.51,65.86,1.61,101.47,3.82c3.5,6.76,6.5,13.75,7.68,21.23
		C706.78,552.56,704.11,564.47,695.75,571.14z"
				class="colorfca79f svgShape"></path>
			<polygon fill="#191716" points="713.64 500.7 695.26 490.49 709.04 512.45"
				class="color191716 svgShape"></polygon>
			<line x1="702.4" x2="696.79" y1="531.6" y2="552.02" fill="none" stroke="#191716"
				stroke-linecap="round" stroke-linejoin="round" stroke-miterlimit="10" stroke-width="3"
				class="colorStroke191716 svgStroke"></line>
			<path fill="#fca79f"
				d="M1003.19,519.09c-1-7.7-2.01-15.43-1.96-23.19c0.05-8.43,1.34-16.8,2.63-25.13
		c1.98-12.83,3.96-25.65,5.95-38.48c0.96-6.24,4.12-14.26,10.39-13.47c3.11,0.4,5.42,3.05,7.12,5.69
		c10.93,16.94,9.46,38.71,13.74,58.41c3.61,16.6,11.42,31.99,15.82,48.4c3.18,11.88,4.46,24.85-0.19,36.24
		c-6.88,16.82-31.26,27.12-43.79,9.5C1003.09,563.3,1005.3,535.29,1003.19,519.09z"
				class="colorfca79f svgShape"></path>
			<path fill="none" stroke="#191716" stroke-linecap="round" stroke-linejoin="round"
				stroke-miterlimit="10" stroke-width="3"
				d="M1037.9,457.64c0.47,14.54,1.11,29.7,8.12,42.44c3.86,7.01,9.46,12.89,14.15,19.38
		c8.84,12.23,14.45,26.76,16.12,41.75c0.39,3.49,0.54,7.16-0.89,10.36c-1.43,3.2-4.89,5.75-8.33,5.04
		c-3.12-0.65-5.26-3.77-5.69-6.93c-0.43-3.16,0.5-6.34,1.59-9.34c9.6-26.48,32.77-47.63,60.02-54.77"
				class="colorStroke191716 svgStroke"></path>
			<line x1="420.53" x2="387.85" y1="745.3" y2="694.23" fill="none" stroke="#191716"
				stroke-linecap="round" stroke-linejoin="round" stroke-miterlimit="10" stroke-width="3"
				class="colorStroke191716 svgStroke"></line>
			<line x1="902.57" x2="871.94" y1="720.79" y2="763.68" fill="none" stroke="#191716"
				stroke-linecap="round" stroke-linejoin="round" stroke-miterlimit="10" stroke-width="3"
				class="colorStroke191716 svgStroke"></line>
			<g>
				<path fill="#231f20"
					d="M579.85,653.38l-96,61.28l-79.66-120.51l42.89-26.55c45.96-69.45,113.36-68.43,145.02-51.06
			c0,0,11.22,20.27,18.3,49.41C617.65,595.79,605.75,636.88,579.85,653.38z"
					class="color231f20 svgShape"></path>
			</g>
			<g>
				<line x1="579.85" x2="500.36" y1="653.38" y2="704.12" fill="none" stroke="#ffc661"
					stroke-linecap="round" stroke-linejoin="round" stroke-miterlimit="10" stroke-width="3"
					class="colorStrokeffc661 svgStroke"></line>
			</g>
			<g>
				<path fill="#fca79f"
					d="M1554.15 427.68c13.76 30.7 32.46 55.87 56.24 74.65l-89.94 39.73-41.87-64.34L1554.15 427.68zM1495.6 903.36c10.74 6.29 20.19 13.42 26.86 21.62 7.42 9.13 12.45 19.94 16.87 30.84 5.26 13.01 9.76 26.32 13.45 39.86 1.32 4.83 2.54 9.82 1.98 14.79-2.91 25.94-108.02 28.15-129.95 30.54-11.5 1.25-23.38 2.31-34.45-1.05-3.33-1.01-6.84-2.71-8.14-5.94-1.38-3.43.34-7.49 3.13-9.92 2.79-2.43 6.42-3.61 9.95-4.72 19.45-6.14 38.91-12.27 58.36-18.41-17.5 5.52-37.9 6.7-56.06 9.17-10.57 1.44-21.46 3.34-32.12 1.79-7.66-1.11-22.38-6.58-17.09-15.89 8.63-15.19 35.46-17.89 50.65-20.03 11.57-1.63 23.14-3.27 34.71-4.9-27.91 6.22-57.29 10.01-85.88 9.09-4.89-.16-9.95-.46-14.29-2.72-4.34-2.26-7.77-6.99-6.98-11.82.94-5.72 6.99-9 12.53-10.72 7.34-2.28 14.99-3.34 22.6-4.4 19.73-2.73 39.46-5.47 59.19-8.2-12.73.14-25.47.29-38.2.43-14.25.16-28.8.28-42.33-4.18-2.52-.83-5.15-1.94-6.59-4.17-2.26-3.5-.53-8.45 2.69-11.08 3.23-2.63 7.5-3.52 11.6-4.25 27.05-4.86 54.58-7.05 82.06-6.52-16.77-6.12-29.14-18.41-41.76-31.04-1.93-1.93-3.88-4.1-4.28-6.8-.56-3.84 2.39-7.53 6-8.96 3.6-1.43 7.66-1.08 11.47-.37 8.19 1.53 16 4.58 23.76 7.61C1445.27 880.82 1473.23 890.26 1495.6 903.36z"
					class="colorfca79f svgShape"></path>
				<path fill="#bed0f0"
					d="M1550.71,1020.4c-16.28-31.68-43.95-95.26-60.23-126.95l178.95-80.22l-102.27-183.44
			c-14.03-40.95,2.86-95.02,52.21-101.11c26.49-3.27,53.08,8.84,72.92,26.71c19.82,17.87,131.76,227.29,131.98,227.78
			c11.25,24.51,29.24,50.46,21.17,79.03c-4.41,15.6-13.08,27.73-23.98,37.74c-16.52,15.15-38.2,25.44-58.08,35.6L1550.71,1020.4z"
					class="colorbed0f0 svgShape"></path>
				<path fill="#fca79f"
					d="M1368.79,1439.26c10.08-4.24,79.22-96.08,157.79-179.23c62.31-65.94,123.5-115.86,141.27-140.45
			l-197.51-91.83c-26.86,34.22-133.7,181.61-160.27,219.32c-20.39,28.95-43.75,81.07-36.45,117.65c0.02,0.11,0.04,0.21,0.06,0.32
			c3.28,16.05,13.35,29.9,27.35,38.39L1368.79,1439.26z"
					class="colorfca79f svgShape"></path>
				<polygon fill="#fca79f"
					points="1368.79 1439.26 1678.23 1589.38 1688.96 1623.09 1826.83 1554.15 1788.53 1525.04 1445.38 1307.51"
					class="colorfca79f svgShape"></polygon>
				<path fill="#231f20"
					d="M1868.34 1610.33c-3.58 7.14-10.24 12.08-16.78 16.6-33.1 22.86-70.87 36.67-104.66 57.25-33.22 20.24-65.23 42.6-99.23 61.94-7.5 4.27-15.25 8.55-23.89 9.64-8.66 1.08-18.5-1.73-23.57-9.1-8.95-12.99 1.13-29.63 10.89-41.25 24.01-28.61 48.03-57.21 72.05-85.83l141.81-73.82C1850.99 1568.48 1876.19 1594.65 1868.34 1610.33zM1281.47 1284.53c30.96-60.85 196.07-299.69 197.62-306.38l250.34-7.75c1.65 37.59-12.48 74.05-29.17 107.77-35.95 72.61-60.73 87.9-112.4 149.68-8.59 10.27-66.22 106.3-78.3 107.63L1281.47 1284.53z"
					class="color231f20 svgShape"></path>
				<polygon fill="#fca79f"
					points="1499 1452.02 1468.36 1811.51 1417.3 1831.94 1553.36 1930.4 1568.45 1860.53 1650.15 1476.53"
					class="colorfca79f svgShape"></polygon>
				<path fill="#231f20"
					d="M1532.67,1975.58c-7.94,0.92-15.71-1.94-23.08-4.94c-37.26-15.16-69.51-39.18-105.25-56.16
				c-35.13-16.69-71.39-31.21-106.2-49.05c-7.68-3.93-15.51-8.07-21.16-14.7c-5.65-6.65-8.69-16.42-5.31-24.71
				c5.96-14.6,25.41-15.3,40.48-13.5c37.09,4.4,74.18,8.81,111.28,13.22l139.47,78.15
				C1558.16,1938.14,1550.08,1973.55,1532.67,1975.58z"
					class="color231f20 svgShape"></path>
				<path fill="#fca79f"
					d="M1499,1452.02l20.43-430.98l198.13-28.6c20.3,61.17,25.95,122.42,6.13,183.83l-73.53,300.26L1499,1452.02z"
					class="colorfca79f svgShape"></path>
				<polyline fill="none" stroke="#191716" stroke-linecap="round" stroke-linejoin="round"
					stroke-miterlimit="10" stroke-width="3"
					points="1631.06 1566.25 1650.15 1476.53 1658.52 1442.36"></polyline>
				<polyline fill="none" stroke="#191716" stroke-linecap="round" stroke-linejoin="round"
					stroke-miterlimit="10" stroke-width="3"
					points="1503.84 1349.83 1499 1452.02 1494.65 1503.06"></polyline>
				<path fill="#231f20"
					d="M1503.09,1362.15c-14.3-147.06,10.97-252.42-1.02-377.87l223.66-21.45c32.17,53.62,33.7,151.66,21.45,194.55
			c0,0-15.32,155.74-23.49,223.15L1503.09,1362.15z"
					class="color231f20 svgShape"></path>
				<path fill="none" stroke="#fff" stroke-linecap="round" stroke-linejoin="round"
					stroke-miterlimit="10" stroke-width="3"
					d="M1500.88,1335.47c-4.9-71.63-0.95-133.64,2.01-193.92c1.38-28.02,2.54-55.66,2.51-83.73"
					class="colorStrokefff svgStroke"></path>
				<line x1="1747.17" x2="1719.6" y1="1157.38" y2="1223.26" fill="none" stroke="#fff"
					stroke-linecap="round" stroke-linejoin="round" stroke-miterlimit="10" stroke-width="3"
					class="colorStrokefff svgStroke"></line>
				<path fill="#bed0f0"
					d="M1610.39,502.33c16.31,8.74,30.91,19.94,46.4,34.62c88.85,84.26,64.34,278.81,64.34,278.81
		s30.96,185.85,32.17,191.49c-5.66,5.83-289.7-1-289.82,0l-5.84-229.79c1.84-58.33,0-84.26,21.45-159.32
		c4.68-16.39,24-58.72,41.36-76.09L1610.39,502.33z"
					class="colorbed0f0 svgShape"></path>
				<path fill="none" stroke="#191716" stroke-linecap="round" stroke-linejoin="round"
					stroke-miterlimit="10" stroke-width="3"
					d="M1656.79,536.96c88.85,84.26,64.34,278.81,64.34,278.81s11.92,71.53,21.25,127.18"
					class="colorStroke191716 svgStroke"></path>
				<path fill="#fca79f"
					d="M1564.74,418.33c-1.81,5.05-4.08,10.11-6.76,15.19c-7.11,13.5-15.35,26.58-26.2,37.29
		c-22.41,22.11-68.33,33.7-85.05-1.95c-3.22-6.87-5.2-14.29-8.52-21.11c-7.6,1.37-15.36,1.81-23.06,1.31
		c-0.94-0.06-1.91-0.15-2.73-0.61c-2.11-1.19-2.18-4.44-0.76-6.4c3.62-4.99,13.38-6.16,18.65-8.8c0.49-0.24,1.01-0.53,1.22-1.04
		c0.18-0.45,0.07-0.96-0.04-1.42c-1.65-6.79-2.5-12.93-4.74-19.63c-4.9-14.57-8.09-30.43-3.96-45.24
		c9.79-35.27,49.28-46.98,82.32-42.43c22.12,3.04,43.38,15.38,54.66,34.64C1571.68,378.49,1571.91,398.31,1564.74,418.33z"
					class="colorfca79f svgShape"></path>
				<path fill="#ffffff"
					d="M1459.41,455.73c-11.38,2.56-15.38-8.26-5.4-13.69c3.52-1.91,10.11-6.07,14.26-3.93
		c1.86,0.96,2.97,3.08,2.96,5.16C1471.2,449.6,1465.07,454.46,1459.41,455.73z"
					class="colorfff svgShape"></path>
				<path fill="#231f20"
					d="M1455.78,370.33c11.74,0.66,24.73,8.98,24.43,21.08c-0.16,6.39,0.62,18,3.76,23.74
		c4.77,8.74,14.29-5.98,21.45-5.77c4.27,0.13,8.04,2.65,11.55,5.09c5.05,3.51,10.08,4.83,14.98,7.41
		c10.17,5.36,15.19,17.91,19.85,27.66c2.59,5.41,7.51,10.81,13.47,10.11c0.89-0.11,1.82-0.38,2.41-1.05
		c2.72-3.04,0.09-7.46,0.49-10.73c0.71-5.85,3.93-10.86,6.15-16.23c3.11-7.51,4.28-15.81,3.39-23.89c-0.31-2.86-0.88-5.74-0.51-8.59
		c1.35-10.3,16.14-12.87,19.35-22.4c2.09-6.19-1.57-12.89-6.11-17.59s-10.16-8.51-13.5-14.13c-2.4-4.04-3.46-8.76-5.85-12.8
		c-3.97-6.69-11.31-10.87-18.91-12.55c-7.6-1.68-15.5-1.15-23.23-0.26c-4.1-12.94-20.17-18.31-33.62-16.49
		c-14.45,1.96-26.98,10.22-41.17,12.91c-12.12,2.3-24.7-8.34-36.2-2.74c-4.32,2.11-7.27,6.32-11.45,8.69
		c-6.95,3.94-15.89,2.09-23.26,5.19c-11.59,4.86-15.08,20.44-11.3,32.42c2.2,6.98,6.46,13.52,12.71,17.34
		c6.25,3.82,14.61,4.5,20.88,0.72c3.34-2.01,6.35-5.28,10.25-5.17c4.04,0.11,7,3.83,10.79,5.24c6,2.23,12.34-1.66,17.88-4.87
		C1447.65,370.82,1451.64,370.09,1455.78,370.33z"
					class="color231f20 svgShape"></path>
				<circle cx="1527.18" cy="401.49" r="34.24" fill="#fca79f"
					transform="rotate(-59.17 1527.255 401.45)" class="colorfca79f svgShape"></circle>
				<path fill="none" stroke="#191716" stroke-linecap="round" stroke-linejoin="round"
					stroke-miterlimit="10" stroke-width="3"
					d="M1511.5,419.37c-9.88-8.66-10.86-23.69-2.2-33.56c8.66-9.88,23.69-10.86,33.56-2.2"
					class="colorStroke191716 svgStroke"></path>
				<path fill="#231f20"
					d="M1449.39,419.8c1.12,2.68,0.69,5.41-0.96,6.1c-1.65,0.69-3.9-0.93-5.01-3.61c-1.12-2.68-0.69-5.41,0.96-6.1
		C1446.03,415.5,1448.27,417.11,1449.39,419.8z"
					class="color231f20 svgShape"></path>
				<g>
					<path fill="#fca79f"
						d="M1199.51,503.77c-13.18,26.11-31.66,49.05-59.84,67.29c-4.76,3.08-9.69,6.23-15.27,7.23
			c-11.11,1.99-22.06-5.12-29-14.02c-8.31-10.65-12.6-23.83-16.16-36.86c-7.77-28.42-13.34-57.61-17.88-86.7
			c-1.78-11.43-3.38-23.24-0.53-34.45c0.86-3.37,2.39-6.96,5.56-8.41c3.36-1.54,7.49-0.01,10.05,2.67
			c5.94,6.2,7.31,18.11,10.31,25.95c4.35,11.38,8.71,22.76,13.07,34.13c-4.64-26.26-9.28-52.52-13.92-78.78
			c-0.74-4.21-1.48-8.57-0.46-12.72s4.33-8.06,8.59-8.38c6.58-0.49,10.61,6.87,12.91,13.05c7.98,21.41,15.96,42.83,23.94,64.24
			c-8.41-22.55-11.99-53.05-12.32-76.96c-0.07-4.89,0.01-9.96,2.06-14.4c2.05-4.44,6.63-8.09,11.49-7.51
			c5.76,0.68,9.31,6.57,11.29,12.02c2.61,7.22,4.03,14.82,5.43,22.37c3.64,19.58,7.28,39.16,10.92,58.75
			c-0.73-12.71-1.46-25.43-2.19-38.14c-0.82-14.23-1.6-28.76,2.23-42.48c0.71-2.55,1.7-5.23,3.86-6.78
			c3.39-2.42,8.42-0.92,11.2,2.18c2.78,3.1,3.86,7.33,4.78,11.39c6.9,30.29,9.93,60.44,9.98,91.39
			c4.81-12.79,9.95-25.46,15.39-37.99c2.79-6.42,5.82-13.04,11.19-17.53c1.6-1.34,3.49-2.5,5.57-2.63c3.85-0.24,7.15,3.22,8.09,6.96
			c0.94,3.75,0.12,7.68-0.71,11.45C1221.76,443.74,1213.72,475.6,1199.51,503.77z"
						class="colorfca79f svgShape"></path>
					<path fill="none" stroke="#191716" stroke-linecap="round" stroke-linejoin="round"
						stroke-miterlimit="10" stroke-width="3"
						d="M1095.39,564.27c-8.31-10.65-12.6-23.83-16.16-36.86c-7.77-28.42-13.34-57.61-17.88-86.7
			c-1.78-11.43-3.38-23.24-0.53-34.45c0.86-3.37,2.39-6.96,5.56-8.41c3.36-1.54,7.49-0.01,10.05,2.67
			c5.94,6.2,7.31,18.11,10.31,25.95c4.35,11.38,8.71,22.76,13.07,34.13c-4.64-26.26-9.28-52.52-13.92-78.78"
						class="colorStroke191716 svgStroke"></path>
					<path fill="#bed0f0"
						d="M1554.22,686.75c-16.94,20.62-220.97,142.09-221.46,142.34c-23.97,12.36-49.06,31.53-77.97,24.79
			c-15.79-3.69-28.31-11.79-38.8-22.22c-15.9-15.81-27.17-36.99-38.23-56.38l-87.27-209.72c30.89-17.72,85.83-47.09,116.73-64.82
			c1,2.46,78.34,184.31,78.34,184.31s49.02-25.53,113.36-61.28c26.28-52.59,64.95-82.82,121.53-80.68L1554.22,686.75z"
						class="colorbed0f0 svgShape"></path>
					<path fill="none" stroke="#191716" stroke-linecap="round" stroke-linejoin="round"
						stroke-miterlimit="10" stroke-width="3"
						d="M1554.22,686.75c-7.47,9.09-51.28,37.77-97.99,67.03"
						class="colorStroke191716 svgStroke"></path>
					<line x1="1520.45" x2="1569.47" y1="543.09" y2="558.4" fill="none" stroke="#191716"
						stroke-linecap="round" stroke-linejoin="round" stroke-miterlimit="10" stroke-width="3"
						class="colorStroke191716 svgStroke"></line>
					<path fill="#231f20"
						d="M1097.56 375.36L1097.56 375.36 1097.56 375.36zM1126.8 355.33L1126.8 355.33 1126.8 355.33zM1165.84 357.31L1165.84 357.31 1165.84 357.31z"
						class="color231f20 svgShape"></path>
				</g>
				<path fill="#231f20"
					d="M1448.33,410.54c1.88,0.37,3.82,0.74,5.7,0.37c4.94-0.96,5.64-7.74,1.88-10.4c-4.68-3.31-14.2-4.41-19.64-3.21
		c-2.68,0.59-5.78,1.89-6.21,4.6C1428.87,409.36,1444,409.69,1448.33,410.54z"
					class="color231f20 svgShape"></path>
				<path fill="none" stroke="#191716" stroke-linecap="round" stroke-linejoin="round"
					stroke-miterlimit="10" stroke-width="3"
					d="M1512.02,386.06c10.09,12.8,17.25,25.96,12.26,40.6" class="colorStroke191716 svgStroke"></path>
				<polygon fill="#191716" points="1487.77 491.51 1506.66 481.3 1493.64 501.47"
					class="color191716 svgShape"></polygon>
				<line x1="1285.55" x2="1232.45" y1="685.04" y2="713.13" fill="none" stroke="#191716"
					stroke-linecap="round" stroke-linejoin="round" stroke-miterlimit="10" stroke-width="3"
					class="colorStroke191716 svgStroke"></line>
				<line x1="1119.4" x2="1130.57" y1="404.24" y2="444.28" fill="none" stroke="#191716"
					stroke-linecap="round" stroke-linejoin="round" stroke-miterlimit="10" stroke-width="3"
					class="colorStroke191716 svgStroke"></line>
			</g>
			<g>
				<path fill="#f4d576"
					d="M1190.81 876.19c-14.38-3.12-25.51-9.78-29.27-24.77-1.24-4.95-2.49-9.9-3.74-14.85-1.69 11.49-2.04 27.36-13.59 33.58-5.31 2.86-11.17 4.7-17.16 5.41 9.75 3.27 20.16 9.3 25.4 18.43 4.92 8.57 2.99 19.44 7.39 27.67 1.89-8.99.96-17.54 5.21-26.23 6.18-12.63 14.03-15.98 27.12-18.96C1191.71 876.38 1191.26 876.28 1190.81 876.19zM1369.56 521.84c-5.62-1.22-9.97-3.83-11.45-9.69-.49-1.94-.97-3.87-1.46-5.81-.66 4.49-.8 10.7-5.32 13.13-2.08 1.12-4.37 1.84-6.71 2.11 3.81 1.28 7.88 3.64 9.93 7.21 1.92 3.35 1.17 7.6 2.89 10.82.74-3.52.37-6.86 2.04-10.26 2.42-4.94 5.49-6.25 10.61-7.41C1369.91 521.91 1369.74 521.87 1369.56 521.84zM1311.95 358.55c-5.62-1.22-9.97-3.83-11.45-9.69-.49-1.94-.97-3.87-1.46-5.81-.66 4.49-.8 10.7-5.32 13.13-2.08 1.12-4.37 1.84-6.71 2.11 3.81 1.28 7.88 3.64 9.93 7.21 1.92 3.35 1.17 7.6 2.89 10.82.74-3.52.37-6.86 2.04-10.26 2.42-4.94 5.49-6.25 10.61-7.41C1312.3 358.63 1312.12 358.59 1311.95 358.55zM941.06 551.44c-5.62-1.22-9.97-3.83-11.45-9.69-.49-1.94-.97-3.87-1.46-5.81-.66 4.49-.8 10.7-5.32 13.13-2.08 1.12-4.37 1.84-6.71 2.11 3.81 1.28 7.88 3.64 9.93 7.21 1.92 3.35 1.17 7.6 2.89 10.82.74-3.52.37-6.86 2.04-10.26 2.42-4.94 5.49-6.25 10.61-7.41C941.42 551.52 941.24 551.48 941.06 551.44zM1090.7 776.43c-5.62-1.22-9.97-3.83-11.45-9.69-.49-1.94-.97-3.87-1.46-5.81-.66 4.49-.8 10.7-5.32 13.13-2.08 1.12-4.37 1.84-6.71 2.11 3.81 1.28 7.88 3.64 9.93 7.21 1.92 3.35 1.17 7.6 2.89 10.82.74-3.52.37-6.86 2.04-10.26 2.42-4.94 5.49-6.25 10.61-7.41C1091.05 776.51 1090.88 776.47 1090.7 776.43zM925.25 295.41c-5.62-1.22-9.97-3.83-11.45-9.69-.49-1.94-.97-3.87-1.46-5.81-.66 4.49-.8 10.7-5.32 13.13-2.08 1.12-4.37 1.84-6.71 2.11 3.81 1.28 7.88 3.64 9.93 7.21 1.92 3.35 1.17 7.6 2.89 10.82.74-3.52.37-6.86 2.04-10.26 2.42-4.94 5.49-6.25 10.61-7.41C925.61 295.48 925.43 295.45 925.25 295.41zM955.68 464.2c-9.14-1.98-16.21-6.22-18.6-15.74-.79-3.15-1.58-6.29-2.37-9.44-1.07 7.3-1.3 17.39-8.64 21.34-3.38 1.82-7.1 2.99-10.9 3.44 6.19 2.08 12.81 5.91 16.14 11.71 3.12 5.44 1.9 12.35 4.69 17.58 1.2-5.71.61-11.15 3.31-16.67 3.93-8.03 8.91-10.16 17.23-12.05C956.25 464.32 955.96 464.26 955.68 464.2zM333.72 580.63c-9.14-1.98-16.21-6.22-18.6-15.74-.79-3.15-1.58-6.29-2.37-9.44-1.07 7.3-1.3 17.39-8.64 21.34-3.38 1.82-7.1 2.99-10.9 3.44 6.19 2.08 12.81 5.91 16.14 11.71 3.12 5.44 1.9 12.35 4.69 17.58 1.2-5.71.61-11.15 3.31-16.67 3.93-8.03 8.91-10.16 17.23-12.05C334.29 580.75 334 580.69 333.72 580.63zM915.85 157.82c-9.14-1.98-16.21-6.22-18.6-15.74-.79-3.15-1.58-6.29-2.37-9.44-1.07 7.3-1.3 17.39-8.64 21.34-3.38 1.82-7.1 2.99-10.9 3.44 6.19 2.08 12.81 5.91 16.14 11.71 3.12 5.44 1.9 12.35 4.69 17.58 1.2-5.71.61-11.15 3.31-16.67 3.93-8.03 8.91-10.16 17.23-12.05C916.42 157.94 916.13 157.88 915.85 157.82zM1049.96 936.94c-8.54-1.86-15.15-5.81-17.39-14.71-.74-2.94-1.48-5.88-2.22-8.82-1 6.83-1.21 16.25-8.08 19.95-3.16 1.7-6.63 2.79-10.19 3.21 5.79 1.94 11.98 5.52 15.09 10.95 2.92 5.09 1.78 11.55 4.39 16.44 1.12-5.34.57-10.42 3.09-15.58 3.67-7.51 8.33-9.49 16.11-11.26C1050.49 937.05 1050.22 937 1049.96 936.94zM1172.93 214.11c-14.38-3.12-25.51-9.78-29.27-24.77-1.24-4.95-2.49-9.9-3.74-14.85-1.69 11.49-2.04 27.36-13.59 33.58-5.31 2.86-11.17 4.7-17.16 5.41 9.75 3.27 20.16 9.3 25.4 18.43 4.92 8.57 2.99 19.44 7.39 27.67 1.89-8.99.96-17.54 5.21-26.23 6.18-12.63 14.03-15.98 27.12-18.96C1173.83 214.3 1173.38 214.21 1172.93 214.11zM1430.08 191.46c-8.99-1.95-15.94-6.11-18.29-15.48-.78-3.09-1.56-6.19-2.34-9.28-1.05 7.18-1.27 17.1-8.5 20.99-3.32 1.79-6.98 2.94-10.72 3.38 6.09 2.04 12.6 5.81 15.88 11.52 3.07 5.35 1.87 12.15 4.62 17.29 1.18-5.62.6-10.96 3.25-16.39 3.86-7.9 8.77-9.99 16.95-11.85C1430.65 191.58 1430.36 191.52 1430.08 191.46zM1708.89 476.39c-8.99-1.95-15.94-6.11-18.29-15.48-.78-3.09-1.56-6.19-2.34-9.28-1.05 7.18-1.27 17.1-8.5 20.99-3.32 1.79-6.98 2.94-10.72 3.38 6.09 2.04 12.6 5.81 15.88 11.52 3.07 5.35 1.87 12.15 4.62 17.29 1.18-5.62.6-10.96 3.25-16.39 3.86-7.9 8.77-9.99 16.95-11.85C1709.46 476.51 1709.17 476.45 1708.89 476.39zM671.32 248.73c-14.04-3.05-24.91-9.55-28.58-24.19-1.21-4.84-2.43-9.67-3.65-14.5-1.65 11.22-1.99 26.72-13.28 32.79-5.19 2.79-10.9 4.59-16.76 5.28 9.52 3.19 19.69 9.08 24.81 18 4.8 8.37 2.92 18.98 7.21 27.02 1.84-8.78.94-17.13 5.08-25.61 6.03-12.34 13.7-15.61 26.49-18.51C672.2 248.92 671.76 248.83 671.32 248.73z"
					class="colorf4d576 svgShape"></path>
			</g>
		</svg>
	</g>
</svg>