<svg width="16" height="24" viewBox="0 0 16 24" fill="none" xmlns="http://www.w3.org/2000/svg">
  <path
    d="M4.10606 0.318359C4.45028 0.318359 4.7804 0.455101 5.0238 0.698501C5.2672 0.941902 5.40395 1.27202 5.40395 1.61625V22.3824C5.40395 22.7266 5.2672 23.0568 5.0238 23.3002C4.7804 23.5436 4.45028 23.6803 4.10606 23.6803H1.51029C1.16607 23.6803 0.835945 23.5436 0.592545 23.3002C0.349144 23.0568 0.212402 22.7266 0.212402 22.3824V1.61625C0.212402 1.27202 0.349144 0.941902 0.592545 0.698501C0.835945 0.455101 1.16607 0.318359 1.51029 0.318359H4.10606ZM14.4891 0.318359C14.8334 0.318359 15.1635 0.455101 15.4069 0.698501C15.6503 0.941902 15.787 1.27202 15.787 1.61625V22.3824C15.787 22.7266 15.6503 23.0568 15.4069 23.3002C15.1635 23.5436 14.8334 23.6803 14.4891 23.6803H11.8934C11.5492 23.6803 11.219 23.5436 10.9756 23.3002C10.7322 23.0568 10.5955 22.7266 10.5955 22.3824V1.61625C10.5955 1.27202 10.7322 0.941902 10.9756 0.698501C11.219 0.455101 11.5492 0.318359 11.8934 0.318359H14.4891Z"
    fill="#000" />
</svg>