<svg width="22" height="26" viewBox="0 0 22 26" fill="none" xmlns="http://www.w3.org/2000/svg">
  <path
    d="M21.2148 13.0009C21.2155 13.3214 21.1334 13.6366 20.9762 13.916C20.8191 14.1953 20.5923 14.4292 20.318 14.5949L3.31822 24.9945C3.03161 25.17 2.70334 25.2658 2.36732 25.272C2.0313 25.2782 1.69971 25.1946 1.4068 25.0299C1.11668 24.8677 0.874996 24.6311 0.706611 24.3445C0.538227 24.0579 0.449215 23.7317 0.44873 23.3993V2.60256C0.449215 2.27017 0.538227 1.94391 0.706611 1.65732C0.874996 1.37074 1.11668 1.13417 1.4068 0.971958C1.69971 0.807185 2.0313 0.723593 2.36732 0.729816C2.70334 0.736038 3.03161 0.83185 3.31822 1.00735L20.318 11.4069C20.5923 11.5726 20.8191 11.8065 20.9762 12.0859C21.1334 12.3652 21.2155 12.6804 21.2148 13.0009Z"
    fill="#000" />
</svg>