<svg width="17" height="16" viewBox="0 0 17 16" fill="none" xmlns="http://www.w3.org/2000/svg">
<path d="M15.8751 6.49938C15.875 6.13286 15.7674 5.77442 15.5657 5.46837C15.3641 5.16233 15.0771 4.9221 14.7404 4.7774C14.4036 4.6327 14.0318 4.58987 13.671 4.6542C13.3102 4.71854 12.9761 4.88722 12.7101 5.13938C11.6251 4.54626 10.3126 4.19751 8.94074 4.13563L9.30886 1.92626L10.6314 2.13001C10.6627 2.46038 10.8125 2.76826 11.0531 2.99683C11.2937 3.22541 11.6088 3.35926 11.9404 3.3737C12.2719 3.38813 12.5975 3.28218 12.8571 3.07537C13.1166 2.86857 13.2926 2.57488 13.3526 2.24849C13.4125 1.92209 13.3524 1.58502 13.1834 1.29947C13.0143 1.01391 12.7476 0.799133 12.4326 0.694767C12.1176 0.590401 11.7755 0.603486 11.4693 0.731609C11.1632 0.859732 10.9138 1.09425 10.767 1.39188L9.05699 1.12876C8.95962 1.11375 8.86027 1.13766 8.78039 1.19532C8.70051 1.25298 8.64653 1.33975 8.63011 1.43688L8.18136 4.13001C6.76636 4.17626 5.40574 4.52876 4.29011 5.13938C4.10882 4.96379 3.89395 4.8266 3.65836 4.73604C3.42278 4.64548 3.17134 4.60341 2.91911 4.61236C2.66688 4.62131 2.41905 4.68109 2.19048 4.78812C1.96191 4.89515 1.75729 5.04722 1.58891 5.23523C1.42052 5.42323 1.29182 5.6433 1.21052 5.88224C1.12923 6.12118 1.09701 6.37407 1.1158 6.62576C1.13459 6.87745 1.20399 7.12275 1.31986 7.34697C1.43573 7.57119 1.59568 7.76971 1.79011 7.93063C1.68111 8.27643 1.62547 8.63682 1.62511 8.99938C1.62511 10.3281 2.35886 11.5675 3.69074 12.4894C4.98011 13.3825 6.68761 13.8744 8.50011 13.8744C10.3126 13.8744 12.0201 13.3825 13.3095 12.4894C14.6414 11.5675 15.3751 10.3281 15.3751 8.99938C15.375 8.63685 15.3195 8.27646 15.2107 7.93063C15.4183 7.75424 15.5852 7.53495 15.6999 7.28787C15.8146 7.04079 15.8744 6.77179 15.8751 6.49938ZM12.0001 1.37438C12.1237 1.37438 12.2446 1.41104 12.3473 1.47972C12.4501 1.54839 12.5302 1.646 12.5775 1.76021C12.6248 1.87441 12.6372 2.00008 12.6131 2.12132C12.589 2.24255 12.5295 2.35392 12.4421 2.44133C12.3546 2.52873 12.2433 2.58826 12.122 2.61237C12.0008 2.63649 11.8751 2.62411 11.7609 2.57681C11.6467 2.5295 11.5491 2.4494 11.4804 2.34661C11.4118 2.24383 11.3751 2.123 11.3751 1.99938C11.3751 1.83362 11.441 1.67465 11.5582 1.55744C11.6754 1.44023 11.8344 1.37438 12.0001 1.37438ZM14.572 7.46876C14.4939 7.5151 14.4352 7.58823 14.4069 7.67456C14.3786 7.76089 14.3827 7.85455 14.4182 7.93813C14.5542 8.27546 14.6244 8.63568 14.6251 8.99938C14.6251 11.2738 11.8751 13.1244 8.50011 13.1244C5.12511 13.1244 2.37511 11.2738 2.37511 8.99938C2.37589 8.63656 2.44589 8.27722 2.58136 7.94063C2.61769 7.85682 2.62217 7.76264 2.59398 7.67576C2.56579 7.58887 2.50685 7.51527 2.42824 7.46876C2.28456 7.3837 2.16162 7.26772 2.06833 7.12924C1.97505 6.99076 1.91376 6.83325 1.88891 6.66815C1.86405 6.50304 1.87627 6.33447 1.92465 6.17466C1.97304 6.01486 2.0564 5.86783 2.16867 5.74425C2.28094 5.62066 2.41931 5.52361 2.57375 5.46014C2.72818 5.39668 2.89481 5.36838 3.06154 5.37731C3.22827 5.38624 3.39092 5.43217 3.53769 5.51177C3.68447 5.59137 3.81168 5.70264 3.91011 5.83751C3.96417 5.91178 4.0436 5.96362 4.13335 5.9832C4.22309 6.00279 4.3169 5.98875 4.39699 5.94376C4.40428 5.93996 4.41137 5.93579 4.41824 5.93126C5.54386 5.24938 6.99324 4.87438 8.50011 4.87438C10.0064 4.87438 11.4551 5.24938 12.5807 5.93063L12.5907 5.93751C12.6713 5.98694 12.7676 6.00411 12.8603 5.98557C12.9531 5.96702 13.0354 5.91414 13.0907 5.83751C13.1892 5.70264 13.3164 5.59137 13.4632 5.51177C13.6099 5.43217 13.7726 5.38624 13.9393 5.37731C14.106 5.36838 14.2727 5.39668 14.4271 5.46014C14.5815 5.52361 14.7199 5.62066 14.8322 5.74425C14.9444 5.86783 15.0278 6.01486 15.0762 6.17466C15.1246 6.33447 15.1368 6.50304 15.1119 6.66815C15.0871 6.83325 15.0258 6.99076 14.9325 7.12924C14.8392 7.26772 14.7163 7.3837 14.5726 7.46876H14.572ZM10.8314 10.8238C10.8779 10.9116 10.8877 11.0144 10.8585 11.1094C10.8293 11.2045 10.7636 11.284 10.6757 11.3306C10.0057 11.6864 9.25871 11.8725 8.50011 11.8725C7.74151 11.8725 6.99448 11.6864 6.32449 11.3306C6.23866 11.2829 6.17497 11.2035 6.14707 11.1094C6.11918 11.0152 6.12932 10.9139 6.17531 10.8272C6.2213 10.7404 6.29947 10.6752 6.39304 10.6455C6.48661 10.6157 6.58811 10.6239 6.67574 10.6681C7.2375 10.9667 7.86394 11.1228 8.50011 11.1228C9.13628 11.1228 9.76272 10.9667 10.3245 10.6681C10.4123 10.6216 10.5151 10.6118 10.6101 10.641C10.7052 10.6702 10.7848 10.7359 10.8314 10.8238ZM6.00011 8.87438C5.82705 8.87438 5.65788 8.82307 5.51399 8.72692C5.37009 8.63077 5.25794 8.49412 5.19172 8.33423C5.12549 8.17435 5.10816 7.99841 5.14192 7.82868C5.17569 7.65895 5.25902 7.50304 5.38139 7.38066C5.50376 7.25829 5.65967 7.17496 5.82941 7.1412C5.99914 7.10743 6.17507 7.12476 6.33496 7.19099C6.49484 7.25722 6.6315 7.36937 6.72765 7.51326C6.82379 7.65715 6.87511 7.82632 6.87511 7.99938C6.87511 8.23145 6.78292 8.45401 6.61883 8.6181C6.45473 8.7822 6.23218 8.87438 6.00011 8.87438ZM11.8751 7.99938C11.8751 8.17244 11.8238 8.34161 11.7276 8.48551C11.6315 8.6294 11.4948 8.74155 11.335 8.80778C11.1751 8.87401 10.9991 8.89133 10.8294 8.85757C10.6597 8.82381 10.5038 8.74047 10.3814 8.6181C10.259 8.49573 10.1757 8.33982 10.1419 8.17009C10.1082 8.00035 10.1255 7.82442 10.1917 7.66454C10.2579 7.50465 10.3701 7.36799 10.514 7.27185C10.6579 7.1757 10.8271 7.12438 11.0001 7.12438C11.2322 7.12438 11.4547 7.21657 11.6188 7.38066C11.7829 7.54476 11.8751 7.76732 11.8751 7.99938Z" fill="black"/>
</svg>
