<svg width="20" height="20" viewBox="0 0 20 20" fill="none" xmlns="http://www.w3.org/2000/svg">
<path d="M18.9899 8.39985C18.9899 8.39985 16.1033 8.51541 14.998 8.09373C14.2721 7.85833 13.3113 7.46357 12.3768 7.58173C11.7656 7.65901 10.3284 8.39409 9.77495 8.52705C9.22171 8.65989 7.55407 8.46401 6.89007 8.46401C6.22603 8.46401 5.73815 8.45281 5.59807 8.88149C5.47275 9.26453 6.06211 9.45353 6.06211 9.45353C6.06211 9.45353 8.71855 9.77481 10.1016 9.85233C10.8742 9.89561 10.9067 9.99905 10.9114 10.2206C10.9155 10.4166 10.3457 10.516 10.3457 10.516L5.55883 10.1317C5.17147 10.0874 4.25895 9.35913 4.25895 9.35913C2.35299 7.12897 1.31163 6.69629 0.840554 6.85313C0.370914 7.00973 0.803714 7.68033 0.803714 7.68033C0.803714 7.68033 3.79415 11.1815 3.95999 11.4032C4.12607 11.6246 4.67931 11.8019 4.67931 11.8019C4.67931 11.8019 7.22459 12.5993 7.55655 12.7323C7.88863 12.8651 8.88447 12.7765 8.88447 12.7765C8.88447 12.7765 14.5141 11.7597 15.0059 11.6689C15.7494 11.5315 18.9898 11.52 18.9898 11.52C19.1528 11.52 19.2801 11.4141 19.2801 11.2982V8.62249C19.2801 8.50637 19.1528 8.39985 18.9899 8.39985Z" fill="black"/>
<path d="M4.94062 7.30933C4.36674 7.51437 3.90614 7.89093 3.98898 8.12285C4.07182 8.35477 4.6657 8.35461 5.2407 8.14917C5.81566 7.94377 6.27518 7.56761 6.19234 7.33565C6.10946 7.10381 5.5145 7.10433 4.94062 7.30933ZM8.02394 7.73437C8.63334 7.77101 9.20362 7.60525 9.21842 7.35941C9.23318 7.11361 8.6857 6.88069 8.07738 6.84413C7.46906 6.80761 6.89766 6.97329 6.8829 7.21909C6.8681 7.46497 7.41442 7.69777 8.02394 7.73437ZM7.2765 14.2134C7.22686 13.9722 6.63762 13.8896 6.04066 14.0125C5.44378 14.1354 4.9351 14.444 4.98482 14.6852C5.0345 14.9264 5.62254 15.0092 6.22062 14.886C6.81862 14.7629 7.32614 14.4546 7.2765 14.2134ZM9.02586 13.7234C8.47126 13.976 8.04394 14.39 8.14602 14.6141C8.2481 14.8382 8.83982 14.7882 9.3955 14.5351C9.95118 14.2821 10.3774 13.8686 10.2754 13.6444C10.1733 13.4204 9.5805 13.4709 9.02586 13.7234ZM7.85182 15.9135C7.28358 15.6932 6.6889 15.6769 6.59986 15.9065C6.51086 16.1361 6.96022 16.5244 7.52954 16.745C8.09874 16.9658 8.69242 16.9817 8.78146 16.7521C8.8705 16.5225 8.42002 16.1338 7.85182 15.9135ZM5.4495 16.5845C5.20858 16.6352 5.1287 17.2249 5.25434 17.8212C5.37998 18.4176 5.6909 18.9248 5.93186 18.874C6.17286 18.8232 6.25286 18.2348 6.12694 17.6373C6.00118 17.0399 5.69054 16.5338 5.4495 16.5845ZM4.05182 12.4735C3.48358 12.2532 2.8889 12.2369 2.79986 12.4665C2.71086 12.6961 3.16022 13.0844 3.72954 13.305C4.29874 13.5258 4.89242 13.5417 4.98146 13.3121C5.0705 13.0825 4.62002 12.6938 4.05182 12.4735ZM3.94318 14.7276C3.70718 14.6576 3.35638 15.1383 3.18318 15.7226C3.00998 16.3069 3.04218 16.9009 3.27826 16.9709C3.51438 17.0409 3.86474 16.5614 4.03822 15.976C4.21178 15.3906 4.1793 14.7977 3.94318 14.7276ZM7.73842 6.19941C7.75318 5.95361 7.2057 5.72069 6.59738 5.68413C5.98906 5.64761 5.41766 5.81329 5.4029 6.05909C5.38814 6.30493 5.93446 6.53777 6.54394 6.57437C7.15334 6.61101 7.72362 6.44529 7.73842 6.19941ZM4.8895 5.76817C5.49038 5.66021 6.00558 5.36481 5.96206 5.12237C5.9185 4.88001 5.33154 4.78261 4.73174 4.89037C4.1319 4.99813 3.61562 5.29377 3.65918 5.53617C3.70274 5.77861 4.28858 5.87613 4.8895 5.76817ZM6.24406 4.53393C6.85286 4.48825 7.39566 4.24737 7.37726 4.00173C7.35882 3.75617 6.78498 3.59901 6.17726 3.64457C5.56958 3.69017 5.02562 3.93117 5.04406 4.17673C5.0625 4.42237 5.63514 4.57961 6.24406 4.53393ZM9.47626 7.37529C9.5365 7.61413 10.1276 7.67097 10.7197 7.52165C11.3117 7.37241 11.8052 7.04209 11.745 6.80325C11.6848 6.56449 11.0925 6.50789 10.5016 6.65689C9.9107 6.80589 9.41606 7.13649 9.47626 7.37529ZM8.5259 5.99873C8.54894 6.24393 9.12446 6.39037 9.73238 6.33325C10.3402 6.27613 10.8784 6.02505 10.8553 5.77981C10.8323 5.53469 10.2556 5.38829 9.6489 5.44533C9.04218 5.50233 8.50286 5.75353 8.5259 5.99873ZM6.9659 4.99873C6.98894 5.24393 7.56446 5.39037 8.17238 5.33325C8.78022 5.27613 9.31838 5.02505 9.29534 4.77981C9.27234 4.53469 8.69562 4.38829 8.0889 4.44533C7.48218 4.50233 6.94286 4.75353 6.9659 4.99873ZM3.99702 7.09501C4.6073 7.11373 5.17242 6.93129 5.17998 6.68509C5.1875 6.43901 4.63342 6.22225 4.02426 6.20357C3.4151 6.18493 2.84886 6.36733 2.84134 6.61349C2.83382 6.85961 3.3867 7.07629 3.99702 7.09501Z" fill="black"/>
</svg>
