<svg width="20" height="21" viewBox="0 0 20 21" fill="none" xmlns="http://www.w3.org/2000/svg">
<path d="M10 5.5L11.195 7.81438L13.75 8.18562L11.875 9.875L12.5 12.375L10 10.9688L7.5 12.375L8.125 9.875L6.25 8.18562L8.875 7.81438L10 5.5Z" fill="#044BB7"/>
<path d="M11.085 19.25L10 18.625L12.5 14.25H16.25C16.4142 14.2502 16.5769 14.2181 16.7286 14.1554C16.8804 14.0926 17.0183 14.0006 17.1344 13.8844C17.2506 13.7683 17.3426 13.6304 17.4054 13.4786C17.4681 13.3269 17.5002 13.1642 17.5 13V5.5C17.5002 5.33578 17.4681 5.17312 17.4054 5.02135C17.3426 4.86959 17.2506 4.73169 17.1344 4.61557C17.0183 4.49944 16.8804 4.40738 16.7286 4.34465C16.5769 4.28192 16.4142 4.24975 16.25 4.25H3.75C3.58578 4.24975 3.42312 4.28192 3.27135 4.34465C3.11959 4.40738 2.98169 4.49944 2.86557 4.61557C2.74944 4.73169 2.65738 4.86959 2.59465 5.02135C2.53192 5.17312 2.49975 5.33578 2.5 5.5V13C2.49975 13.1642 2.53192 13.3269 2.59465 13.4786C2.65738 13.6304 2.74944 13.7683 2.86557 13.8844C2.98169 14.0006 3.11959 14.0926 3.27135 14.1554C3.42312 14.2181 3.58578 14.2502 3.75 14.25H9.375V15.5H3.75C3.08696 15.5 2.45107 15.2366 1.98223 14.7678C1.51339 14.2989 1.25 13.663 1.25 13V5.5C1.24992 5.17167 1.31453 4.84655 1.44013 4.54319C1.56574 4.23984 1.74989 3.96421 1.98205 3.73205C2.21421 3.49989 2.48984 3.31574 2.79319 3.19013C3.09655 3.06453 3.42167 2.99992 3.75 3H16.25C16.5783 2.99992 16.9035 3.06453 17.2068 3.19013C17.5102 3.31574 17.7858 3.49989 18.018 3.73205C18.2501 3.96421 18.4343 4.23984 18.5599 4.54319C18.6855 4.84655 18.7501 5.17167 18.75 5.5V13C18.75 13.663 18.4866 14.2989 18.0178 14.7678C17.5489 15.2366 16.913 15.5 16.25 15.5H13.2281L11.085 19.25Z" fill="#044BB7"/>
</svg>
