<svg width="20" height="20" viewBox="0 0 20 20" fill="none" xmlns="http://www.w3.org/2000/svg">
<path d="M19.6875 8.4375H15.9555C15.8726 8.4375 15.7931 8.47042 15.7345 8.52903C15.6759 8.58763 15.643 8.66712 15.643 8.75V10.1706H12.1875C12.1046 10.1706 12.0251 10.2035 11.9665 10.2622C11.9079 10.3208 11.875 10.4002 11.875 10.4831V11.7188H8.28125C8.19837 11.7188 8.11888 11.7517 8.06028 11.8103C8.00167 11.8689 7.96875 11.9484 7.96875 12.0312V13.125H4.53125C4.44837 13.125 4.36888 13.1579 4.31028 13.2165C4.25167 13.2751 4.21875 13.3546 4.21875 13.4375V14.6875H0.3125C0.22962 14.6875 0.150134 14.7204 0.0915291 14.779C0.032924 14.8376 0 14.9171 0 15C0 15.0829 0.032924 15.1624 0.0915291 15.221C0.150134 15.2796 0.22962 15.3125 0.3125 15.3125H4.53125C4.61413 15.3125 4.69362 15.2796 4.75222 15.221C4.81083 15.1624 4.84375 15.0829 4.84375 15V13.75H8.28125C8.36413 13.75 8.44362 13.7171 8.50222 13.6585C8.56083 13.5999 8.59375 13.5204 8.59375 13.4375V12.3438H12.1875C12.2704 12.3438 12.3499 12.3108 12.4085 12.2522C12.4671 12.1936 12.5 12.1141 12.5 12.0312V10.7956H15.9555C16.0383 10.7956 16.1178 10.7627 16.1764 10.7041C16.235 10.6455 16.268 10.566 16.268 10.4831V9.0625H19.6875C19.7704 9.0625 19.8499 9.02958 19.9085 8.97097C19.9671 8.91237 20 8.83288 20 8.75C20 8.66712 19.9671 8.58763 19.9085 8.52903C19.8499 8.47042 19.7704 8.4375 19.6875 8.4375Z" fill="black"/>
<path d="M1.8372 9.84109C2.00061 9.90714 2.17938 9.92555 2.35282 9.89422C2.35861 9.96625 2.36564 10.0369 2.37454 10.1055L2.37579 10.1161L2.37751 10.1267C2.4147 10.3575 2.42595 10.6517 2.40142 10.743L2.39423 10.7692L2.38954 10.7961C2.31017 11.2406 2.0897 12.4558 2.02392 12.7352C1.93611 13.1061 2.02032 13.4794 2.24892 13.7333C2.44001 13.9456 2.70001 14.0625 2.98111 14.0625C3.44923 14.0625 3.86314 13.7317 3.96517 13.2759L4.26001 12.0269C4.34558 12.1526 4.46129 12.2549 4.59657 12.3244C4.73939 12.3994 4.9022 12.4389 5.06767 12.4389C5.35282 12.4389 5.62189 12.3227 5.80548 12.1202C5.97983 11.9268 6.07887 11.6772 6.08454 11.4169L6.14704 10.2794L6.15017 10.2352C6.16517 10.0378 6.2047 9.51359 5.66267 9.20703L5.62689 9.18625C5.99064 9.07703 6.25017 8.72484 6.25017 8.29562C6.25017 8.06 6.16876 7.83625 6.02095 7.66516C5.84423 7.46062 5.5897 7.34766 5.30407 7.34703L5.03126 7.33703C5.01907 7.25891 5.00314 7.17813 4.98236 7.09172C4.90673 6.77547 4.75814 6.52484 4.54798 6.33766C4.82142 6.12438 5.00017 5.77984 5.00017 5.39047C5.00001 4.74438 4.50939 4.21875 3.90626 4.21875C3.30314 4.21875 2.81251 4.74438 2.81251 5.39047C2.81166 5.64978 2.89355 5.90261 3.04626 6.11219C2.94472 6.17962 2.85274 6.26046 2.77282 6.3525C2.77314 6.3525 1.93782 7.25984 1.92907 7.26969C1.82551 7.38058 1.74428 7.5104 1.68986 7.65203L1.31407 8.62344C1.12845 9.10312 1.36314 9.64938 1.8372 9.84109ZM3.90626 4.84375C4.16517 4.84375 4.37501 5.08859 4.37501 5.39047C4.37501 5.69266 4.16517 5.9375 3.90626 5.9375C3.64736 5.9375 3.43751 5.69266 3.43751 5.39047C3.43751 5.08859 3.64736 4.84375 3.90626 4.84375ZM1.89689 8.84891L2.27236 7.87859C2.29893 7.80905 2.33896 7.74544 2.39017 7.69141L3.23454 6.77406C3.27611 6.7275 3.40861 6.5625 3.62111 6.5625C3.62111 6.5625 3.67517 6.56422 3.70454 6.57172C3.84689 6.6075 3.97704 6.67813 4.09454 6.76641C4.24751 6.88141 4.33048 7.05328 4.37454 7.23766C4.42673 7.45531 4.44017 7.62609 4.44642 7.84641C4.44782 7.89516 4.44923 7.94016 4.4972 7.94281C4.50017 7.94312 5.29251 7.97203 5.29251 7.97203H5.30142C5.74251 7.97203 5.69454 8.59641 5.38579 8.59641C5.38267 8.59641 4.75876 8.59141 4.53345 8.59141H4.52798C4.44939 8.59141 4.45064 8.65484 4.45064 8.65484C4.45111 8.6725 4.44923 8.68875 4.44845 8.70656C4.44595 8.78 4.44236 8.85344 4.44126 8.92687C4.43829 9.08469 4.4072 9.22687 4.57564 9.29797C4.57845 9.29922 5.35486 9.75109 5.35486 9.75109C5.5722 9.87406 5.53548 10.0428 5.52282 10.2452L5.4597 11.3936C5.45973 11.5068 5.41794 11.616 5.34236 11.7003C5.27361 11.7763 5.17001 11.8139 5.06736 11.8139C5.00439 11.8139 4.94157 11.7997 4.88751 11.7711C4.70361 11.6744 4.6972 11.4483 4.69392 11.2625C4.69376 11.2563 4.70173 10.4659 4.70173 10.4659C4.70954 10.2991 4.64361 10.2116 4.64361 10.2116L3.94142 9.91031C3.94142 9.91031 3.92064 9.89609 3.90126 9.89609C3.89501 9.89609 3.88892 9.89766 3.88376 9.90141C3.85626 9.92187 3.86923 9.96031 3.86923 9.96031L3.91486 10.3984C3.95376 10.5533 3.90626 10.8319 3.90626 10.8319L3.8547 11.0225L3.35517 13.1394C3.31517 13.3178 3.15048 13.4375 2.98095 13.4375C2.88626 13.4375 2.79001 13.4003 2.71345 13.315C2.61251 13.203 2.59767 13.0247 2.6322 12.8784C2.71642 12.5212 3.0047 10.9059 3.0047 10.9059C3.08782 10.5986 2.99439 10.0259 2.99439 10.0259C2.88564 9.17797 3.06689 7.92687 3.06689 7.92687L3.07907 7.86281L2.84782 8.12L2.47517 9.08281C2.45292 9.1416 2.4134 9.19227 2.36181 9.22817C2.31021 9.26406 2.24896 9.28349 2.18611 9.28391C2.14782 9.28391 2.10923 9.27672 2.07157 9.26172C1.91189 9.19703 1.83376 9.01219 1.89689 8.84891Z" fill="black"/>
</svg>
